<svg width="214" height="211" viewBox="0 0 214 211" fill="none" xmlns="http://www.w3.org/2000/svg">
<g clip-path="url(#clip0_10_14815)">
<path opacity="0.7" d="M197.933 86.3111C198.089 129.233 163.325 164.157 120.281 164.313C77.2358 164.469 42.2115 129.804 42.0552 86.8824C41.899 43.9605 76.6629 9.0362 119.708 8.88041C162.753 8.72461 197.777 43.3893 197.933 86.3111Z" fill="url(#paint0_linear_10_14815)"/>
<path opacity="0.7" d="M70.4653 65.9018C104.083 33.4962 157.675 34.379 190.173 67.9012C222.671 101.423 221.786 154.861 188.168 187.267C154.55 219.673 100.959 218.79 68.4602 185.268C35.9618 151.745 36.8472 98.3074 70.4653 65.9018Z" fill="url(#paint1_linear_10_14815)"/>
<path opacity="0.7" d="M26.6654 65.2786C58.3826 34.6907 108.927 35.5475 139.603 67.1482C170.278 98.7748 169.419 149.175 137.702 179.763C105.984 210.351 55.44 209.494 24.7644 177.867C-5.91117 146.241 -5.05184 95.8407 26.6393 65.2527L26.6654 65.2786Z" fill="url(#paint2_linear_10_14815)"/>
<path opacity="0.7" d="M31.4047 47.9074C35.3368 44.1163 41.6126 44.2202 45.4145 48.1411C49.2163 52.0619 49.1122 58.3197 45.1801 62.1108C41.248 65.9018 34.9722 65.798 31.1704 61.8771C27.3685 57.9562 27.4726 51.6984 31.4047 47.9074Z" fill="url(#paint3_linear_10_14815)"/>
<path opacity="0.7" d="M43.6958 4.23247C46.2738 1.76569 50.3621 1.81762 52.836 4.38826C55.3098 6.9589 55.2577 11.0356 52.6797 13.5023C50.1017 15.9691 46.0134 15.9172 43.5395 13.3465C41.0657 10.7759 41.1178 6.69924 43.6958 4.23247Z" fill="url(#paint4_linear_10_14815)"/>
<path opacity="0.7" d="M71.4288 1.24631C73.1995 -0.467445 76.0119 -0.415513 77.7045 1.35018C79.4232 3.11587 79.3711 5.9202 77.6004 7.60799C75.8296 9.32175 73.0173 9.26982 71.2986 7.50413C69.606 5.73844 69.632 2.93411 71.4028 1.24631H71.4288Z" fill="url(#paint5_linear_10_14815)"/>
<path opacity="0.7" d="M11.7963 153.667C14.4264 156.368 14.3482 160.704 11.64 163.326C8.93185 165.949 4.5831 165.871 1.95302 163.171C-0.677061 160.47 -0.59894 156.134 2.10926 153.511C4.8435 150.889 9.16621 150.967 11.7963 153.667Z" fill="url(#paint6_linear_10_14815)"/>
<path opacity="0.5" d="M182.309 126.584C182.309 169.506 147.415 204.301 104.37 204.301C61.3251 204.301 26.431 169.506 26.431 126.584C26.431 83.6625 61.3251 48.868 104.37 48.868C147.415 48.868 182.309 83.6625 182.309 126.584Z" fill="white"/>
<path opacity="0.5" d="M173.195 101.709C173.195 142.112 140.332 174.881 99.8129 174.881C59.294 174.881 26.431 142.112 26.431 101.709C26.431 61.3058 59.294 28.5366 99.8129 28.5366C140.332 28.5366 173.195 61.3058 173.195 101.709Z" fill="white"/>
<path opacity="0.5" d="M197.49 113.42C197.49 153.823 164.627 186.592 124.109 186.592C83.5897 186.592 50.7267 153.823 50.7267 113.42C50.7267 73.0164 83.5897 40.2473 124.109 40.2473C164.627 40.2473 197.49 73.0164 197.49 113.42Z" fill="white"/>
<path d="M112.182 192.434C68.4862 192.434 32.9411 156.991 32.9411 113.42C32.9411 69.8487 68.4862 34.405 112.182 34.405C155.878 34.405 191.423 69.8487 191.423 113.42C191.423 156.991 155.878 192.434 112.182 192.434ZM112.182 37.0016C69.9185 37.0016 35.5451 71.2768 35.5451 113.42C35.5451 155.563 69.9185 189.838 112.182 189.838C154.446 189.838 188.819 155.563 188.819 113.42C188.819 71.2768 154.446 37.0016 112.182 37.0016Z" fill="white"/>
<path d="M186.085 113.42C186.085 154.108 152.987 187.111 112.208 187.111C71.4288 187.111 38.3315 154.108 38.3315 113.42C38.3315 72.7309 71.4028 39.754 112.208 39.754C153.013 39.754 186.085 72.7309 186.085 113.42Z" fill="white"/>
</g>
<g clip-path="url(#clip1_10_14815)">
<path d="M142.881 98.5227L139.826 96.9954C148.298 91.3481 144.357 77.9287 134.035 77.8856C123.712 77.9292 119.773 91.3518 128.246 96.9963L125.187 98.5265C124.871 98.6845 124.567 98.8594 124.276 99.0482C123.715 96.2957 121.932 93.9329 119.346 92.641L116.291 91.1139C124.763 85.4665 120.822 72.0474 110.5 72.0042C100.177 72.0477 96.2374 85.4708 104.711 91.1151L101.652 92.6458C99.0691 93.9374 97.2877 96.2973 96.7256 99.0462C96.4331 98.8566 96.1283 98.6812 95.8108 98.5225L92.7561 96.9953C101.228 91.3481 97.2865 77.9289 86.9646 77.8858C76.6416 77.9293 72.7021 91.352 81.1754 96.9964L78.1161 98.5266C74.9604 100.106 73 103.279 73 106.807V116.565C73 117.778 73.9838 118.762 75.1973 118.762H82.4141V140.041C82.4141 140.768 82.7736 141.448 83.3743 141.857C83.9752 142.266 84.7393 142.352 85.4157 142.086C85.4586 142.069 89.9866 140.319 95.1962 140.024C101.679 139.656 106.184 141.629 108.587 145.887C109.398 147.366 111.603 147.366 112.414 145.887C114.817 141.629 119.321 139.656 125.804 140.024C131.014 140.319 135.542 142.069 135.585 142.086C136.261 142.352 137.025 142.266 137.626 141.857C138.227 141.448 138.586 140.768 138.586 140.041V118.762H145.803C147.016 118.762 148 117.778 148 116.565V106.804C148 103.273 146.038 100.1 142.881 98.5227ZM127.995 88.3203C127.995 84.9898 130.705 82.2803 134.035 82.2803C142.037 82.584 142.035 94.058 134.035 94.3604C130.705 94.3603 127.995 91.6508 127.995 88.3203ZM104.46 82.4388C104.46 79.1083 107.17 76.3988 110.5 76.3988C118.502 76.7025 118.5 88.1765 110.5 88.479C107.17 88.479 104.46 85.7694 104.46 82.4388ZM80.9248 88.3203C80.9248 84.9898 83.6343 82.2803 86.9648 82.2803C94.9668 82.584 94.9646 94.058 86.9646 94.3604C83.6343 94.3603 80.9248 91.6508 80.9248 88.3203ZM83.8072 109.715C82.9667 110.046 82.4141 110.857 82.4141 111.76V114.368H77.3945V106.807C77.3945 104.953 78.4246 103.286 80.0824 102.457L86.9652 99.0141L93.846 102.454C95.5048 103.282 96.5352 104.949 96.5352 106.804V107.308C95.9789 107.311 95.4125 107.328 94.8348 107.363C88.9454 107.717 84.0142 109.634 83.8072 109.715ZM108.303 139.001C104.917 136.46 100.363 135.31 94.8347 135.643C91.6977 135.832 88.8328 136.464 86.8085 137.026V113.33C88.5479 112.785 91.7201 111.94 95.1959 111.744C101.432 111.391 105.838 113.202 108.303 117.13V139.001ZM110.5 112.749C108.129 110.068 104.9 108.355 100.93 107.66V100.926C100.93 99.0718 101.96 97.4053 103.618 96.576L110.5 93.1326L117.381 96.5721C119.04 97.4006 120.07 99.0674 120.07 100.922V107.66C116.1 108.355 112.871 110.068 110.5 112.749ZM134.191 137.026C132.167 136.464 129.302 135.832 126.165 135.643C120.637 135.311 116.083 136.46 112.697 139.001V117.131C115.162 113.203 119.568 111.391 125.804 111.744C129.28 111.941 132.452 112.785 134.191 113.33V137.026ZM143.605 114.368H138.586V111.76C138.586 110.857 138.033 110.046 137.193 109.715C136.986 109.634 132.055 107.717 126.165 107.363C125.587 107.328 125.021 107.311 124.465 107.308V106.807C124.465 104.953 125.495 103.286 127.153 102.457L134.036 99.0141L140.916 102.454C142.575 103.282 143.605 104.949 143.605 106.804V114.368Z" fill="#00B98E"/>
<path d="M101.527 126.626C99.2108 126.152 96.6202 126.039 93.8274 126.292C92.6187 126.402 91.7278 127.47 91.8372 128.679C91.9468 129.888 93.0161 130.779 94.2237 130.669C96.589 130.455 98.7497 130.543 100.645 130.931C102.323 131.274 103.114 129.826 103.239 129.219C103.482 128.03 102.716 126.869 101.527 126.626Z" fill="#00B98E"/>
<path d="M101.525 117.2C99.2064 116.725 96.616 116.613 93.8257 116.865C90.9347 117.236 91.3148 121.398 94.2221 121.242C96.5849 121.028 98.7456 121.117 100.644 121.505C102.322 121.848 103.113 120.4 103.237 119.793C103.481 118.604 102.714 117.443 101.525 117.2Z" fill="#00B98E"/>
<path d="M127.173 126.292C124.38 126.039 121.79 126.152 119.474 126.626C118.285 126.869 117.519 128.03 117.762 129.219C117.886 129.826 118.677 131.274 120.355 130.931C122.251 130.543 124.411 130.455 126.777 130.669C127.984 130.779 129.054 129.888 129.163 128.679C129.273 127.47 128.382 126.402 127.173 126.292Z" fill="#00B98E"/>
<path d="M119.474 117.2C118.285 117.443 117.518 118.604 117.762 119.793C117.886 120.4 118.677 121.848 120.355 121.505C122.254 121.117 124.414 121.028 126.777 121.242C129.686 121.397 130.062 117.235 127.173 116.865C124.383 116.613 121.793 116.725 119.474 117.2Z" fill="#00B98E"/>
</g>
<defs>
<linearGradient id="paint0_linear_10_14815" x1="42.071" y1="86.8562" x2="197.948" y2="86.2832" gradientUnits="userSpaceOnUse">
<stop stop-color="#00B98E"/>
<stop offset="1" stop-color="#169678"/>
</linearGradient>
<linearGradient id="paint1_linear_10_14815" x1="188.23" y1="187.354" x2="70.859" y2="65.6347" gradientUnits="userSpaceOnUse">
<stop stop-color="#00B98E"/>
<stop offset="1" stop-color="#0C9172"/>
</linearGradient>
<linearGradient id="paint2_linear_10_14815" x1="137.749" y1="179.863" x2="27.0198" y2="65.0317" gradientUnits="userSpaceOnUse">
<stop stop-color="#00B98E"/>
<stop offset="1" stop-color="#0D9273"/>
</linearGradient>
<linearGradient id="paint3_linear_10_14815" x1="45.2159" y1="62.1871" x2="31.4808" y2="47.9431" gradientUnits="userSpaceOnUse">
<stop stop-color="#00B98E"/>
<stop offset="1" stop-color="#0F9576"/>
</linearGradient>
<linearGradient id="paint4_linear_10_14815" x1="52.7362" y1="13.5764" x2="43.7659" y2="4.27386" gradientUnits="userSpaceOnUse">
<stop stop-color="#00B98E"/>
<stop offset="1" stop-color="#0B9A79"/>
</linearGradient>
<linearGradient id="paint5_linear_10_14815" x1="77.6781" y1="7.69448" x2="71.5054" y2="1.29313" gradientUnits="userSpaceOnUse">
<stop stop-color="#00B98E"/>
<stop offset="1" stop-color="#3DDAB6"/>
</linearGradient>
<linearGradient id="paint6_linear_10_14815" x1="1.91571" y1="163.201" x2="11.7348" y2="153.678" gradientUnits="userSpaceOnUse">
<stop stop-color="#00B98E"/>
<stop offset="1" stop-color="#119475"/>
</linearGradient>
<clipPath id="clip0_10_14815">
<rect width="214" height="211" fill="white"/>
</clipPath>
<clipPath id="clip1_10_14815">
<rect width="75" height="75" fill="white" transform="translate(73 72)"/>
</clipPath>
</defs>
</svg>
