<svg width="214" height="211" viewBox="0 0 214 211" fill="none" xmlns="http://www.w3.org/2000/svg">
<g clip-path="url(#clip0_10_14817)">
<path opacity="0.7" d="M197.933 86.3111C198.089 129.233 163.325 164.157 120.281 164.313C77.2358 164.469 42.2115 129.804 42.0552 86.8824C41.899 43.9605 76.6629 9.0362 119.708 8.88041C162.753 8.72461 197.777 43.3893 197.933 86.3111Z" fill="url(#paint0_linear_10_14817)"/>
<path opacity="0.7" d="M70.4653 65.9018C104.083 33.4962 157.675 34.379 190.173 67.9012C222.671 101.423 221.786 154.861 188.168 187.267C154.55 219.673 100.959 218.79 68.4602 185.268C35.9618 151.745 36.8472 98.3074 70.4653 65.9018Z" fill="url(#paint1_linear_10_14817)"/>
<path opacity="0.7" d="M26.6654 65.2786C58.3826 34.6907 108.927 35.5475 139.603 67.1482C170.278 98.7748 169.419 149.175 137.702 179.763C105.984 210.351 55.44 209.494 24.7644 177.867C-5.91117 146.241 -5.05184 95.8407 26.6393 65.2527L26.6654 65.2786Z" fill="url(#paint2_linear_10_14817)"/>
<path opacity="0.7" d="M31.4047 47.9074C35.3368 44.1163 41.6126 44.2202 45.4145 48.1411C49.2164 52.0619 49.1122 58.3197 45.1801 62.1108C41.248 65.9018 34.9723 65.798 31.1704 61.8771C27.3685 57.9562 27.4726 51.6984 31.4047 47.9074Z" fill="url(#paint3_linear_10_14817)"/>
<path opacity="0.7" d="M43.6958 4.23247C46.2738 1.76569 50.3621 1.81762 52.836 4.38826C55.3098 6.9589 55.2577 11.0356 52.6797 13.5023C50.1017 15.9691 46.0134 15.9172 43.5395 13.3465C41.0657 10.7759 41.1178 6.69924 43.6958 4.23247Z" fill="url(#paint4_linear_10_14817)"/>
<path opacity="0.7" d="M71.4288 1.24631C73.1996 -0.467445 76.0119 -0.415513 77.7046 1.35018C79.4232 3.11587 79.3711 5.9202 77.6004 7.60799C75.8296 9.32175 73.0173 9.26982 71.2986 7.50413C69.606 5.73844 69.632 2.93411 71.4028 1.24631H71.4288Z" fill="url(#paint5_linear_10_14817)"/>
<path opacity="0.7" d="M11.7963 153.667C14.4264 156.368 14.3483 160.704 11.6401 163.326C8.93185 165.949 4.58311 165.871 1.95303 163.171C-0.677053 160.47 -0.598932 156.134 2.10927 153.511C4.84351 150.889 9.16622 150.967 11.7963 153.667Z" fill="url(#paint6_linear_10_14817)"/>
<path opacity="0.5" d="M182.309 126.584C182.309 169.506 147.415 204.301 104.37 204.301C61.3251 204.301 26.431 169.506 26.431 126.584C26.431 83.6625 61.3251 48.868 104.37 48.868C147.415 48.868 182.309 83.6625 182.309 126.584Z" fill="white"/>
<path opacity="0.5" d="M173.195 101.709C173.195 142.112 140.332 174.881 99.8129 174.881C59.294 174.881 26.431 142.112 26.431 101.709C26.431 61.3058 59.294 28.5366 99.8129 28.5366C140.332 28.5366 173.195 61.3058 173.195 101.709Z" fill="white"/>
<path opacity="0.5" d="M197.49 113.42C197.49 153.823 164.627 186.592 124.109 186.592C83.5897 186.592 50.7267 153.823 50.7267 113.42C50.7267 73.0164 83.5897 40.2473 124.109 40.2473C164.627 40.2473 197.49 73.0164 197.49 113.42Z" fill="white"/>
<path d="M112.182 192.434C68.4862 192.434 32.9411 156.991 32.9411 113.42C32.9411 69.8487 68.4862 34.405 112.182 34.405C155.878 34.405 191.423 69.8487 191.423 113.42C191.423 156.991 155.878 192.434 112.182 192.434ZM112.182 37.0016C69.9185 37.0016 35.5451 71.2768 35.5451 113.42C35.5451 155.563 69.9185 189.838 112.182 189.838C154.446 189.838 188.819 155.563 188.819 113.42C188.819 71.2768 154.446 37.0016 112.182 37.0016Z" fill="white"/>
<path d="M186.085 113.42C186.085 154.108 152.987 187.111 112.208 187.111C71.4288 187.111 38.3315 154.108 38.3315 113.42C38.3315 72.7309 71.4028 39.754 112.208 39.754C153.013 39.754 186.085 72.7309 186.085 113.42Z" fill="white"/>
</g>
<g clip-path="url(#clip1_10_14817)">
<path d="M88.467 120.658C87.9629 120.658 87.4795 120.457 87.1231 120.101C86.7666 119.744 86.5664 119.261 86.5664 118.757V105.199C86.5664 104.695 86.7666 104.212 87.1231 103.855C87.4795 103.499 87.9629 103.299 88.467 103.299C88.9711 103.299 89.4545 103.499 89.8109 103.855C90.1673 104.212 90.3676 104.695 90.3676 105.199V118.757C90.3676 119.261 90.1673 119.744 89.8109 120.101C89.4545 120.457 88.9711 120.658 88.467 120.658Z" fill="#00B98E"/>
<path d="M97.0303 90.3851C95.2121 90.3851 93.4349 89.846 91.9232 88.8359C90.4114 87.8258 89.2332 86.3901 88.5375 84.7104C87.8417 83.0307 87.6597 81.1824 88.0143 79.3992C88.369 77.616 89.2445 75.978 90.5301 74.6924C91.8157 73.4068 93.4537 72.5313 95.2369 72.1766C97.0201 71.8219 98.8684 72.004 100.548 72.6997C102.228 73.3955 103.663 74.5737 104.674 76.0854C105.684 77.5972 106.223 79.3744 106.223 81.1925C106.22 83.6297 105.251 85.9663 103.527 87.6897C101.804 89.413 99.4674 90.3824 97.0303 90.3851ZM97.0303 75.8012C95.9639 75.8012 94.9216 76.1174 94.035 76.7098C93.1484 77.3022 92.4574 78.1442 92.0493 79.1294C91.6412 80.1145 91.5345 81.1985 91.7425 82.2443C91.9505 83.2902 92.464 84.2508 93.218 85.0048C93.972 85.7588 94.9326 86.2723 95.9785 86.4803C97.0243 86.6883 98.1083 86.5816 99.0934 86.1735C100.079 85.7655 100.921 85.0744 101.513 84.1878C102.105 83.3012 102.422 82.2589 102.422 81.1925C102.42 79.7632 101.851 78.3928 100.841 77.3821C99.83 76.3714 98.4596 75.8029 97.0303 75.8012Z" fill="#00B98E"/>
<path d="M126.999 104.604C126.632 104.604 126.273 104.498 125.965 104.299C125.657 104.099 125.413 103.815 125.263 103.48C125.114 103.145 125.064 102.774 125.12 102.411C125.177 102.048 125.337 101.71 125.582 101.436L135.908 89.8605C136.075 89.6742 136.276 89.5225 136.501 89.4141C136.726 89.3057 136.97 89.2427 137.22 89.2286C137.469 89.2145 137.719 89.2497 137.954 89.3322C138.19 89.4146 138.407 89.5427 138.594 89.7091C138.78 89.8755 138.932 90.0769 139.04 90.3019C139.149 90.527 139.212 90.7711 139.226 91.0205C139.24 91.2699 139.204 91.5196 139.122 91.7554C139.04 91.9911 138.912 92.2084 138.745 92.3946L128.419 103.964C128.241 104.165 128.022 104.326 127.778 104.436C127.533 104.546 127.268 104.604 126.999 104.604Z" fill="#00B98E"/>
<path d="M147.298 121.766H113.198C112.694 121.766 112.211 121.566 111.854 121.21C111.498 120.853 111.297 120.37 111.297 119.866C111.297 119.362 111.498 118.878 111.854 118.522C112.211 118.165 112.694 117.965 113.198 117.965H147.298C147.803 117.965 148.286 117.765 148.642 117.408C148.999 117.052 149.199 116.569 149.199 116.065V77.7448C149.199 77.2407 148.999 76.7573 148.642 76.4008C148.286 76.0444 147.803 75.8442 147.298 75.8442H110.014C109.51 75.8442 109.026 75.6439 108.67 75.2875C108.314 74.9311 108.113 74.4476 108.113 73.9436C108.113 73.4395 108.314 72.9561 108.67 72.5996C109.026 72.2432 109.51 72.043 110.014 72.043H147.298C148.811 72.043 150.261 72.6437 151.33 73.713C152.4 74.7823 153 76.2325 153 77.7448V116.065C153 117.577 152.4 119.027 151.33 120.096C150.261 121.166 148.811 121.766 147.298 121.766Z" fill="#00B98E"/>
<path d="M97.0311 147.001H88.467C87.9629 147.001 87.4795 146.801 87.1231 146.444C86.7666 146.088 86.5664 145.605 86.5664 145.101V118.757C86.5664 118.253 86.7666 117.77 87.1231 117.413C87.4795 117.057 87.9629 116.856 88.467 116.856C88.9711 116.856 89.4545 117.057 89.8109 117.413C90.1673 117.77 90.3676 118.253 90.3676 118.757V143.2H97.0311C97.5351 143.2 98.0186 143.4 98.375 143.757C98.7314 144.113 98.9317 144.596 98.9317 145.101C98.9317 145.605 98.7314 146.088 98.375 146.444C98.0186 146.801 97.5351 147.001 97.0311 147.001Z" fill="#00B98E"/>
<path d="M105.595 147.001H97.03C96.5259 147.001 96.0425 146.801 95.6861 146.445C95.3297 146.088 95.1294 145.605 95.1294 145.101V119.866C95.1294 119.362 95.3297 118.878 95.6861 118.522C96.0425 118.165 96.5259 117.965 97.03 117.965C97.5341 117.965 98.0175 118.165 98.3739 118.522C98.7304 118.878 98.9306 119.362 98.9306 119.866V143.2H103.695V107.266C103.695 106.477 103.928 105.706 104.367 105.05C104.805 104.394 105.428 103.883 106.157 103.582C106.885 103.28 107.687 103.201 108.461 103.355C109.235 103.509 109.945 103.889 110.503 104.447L113.482 107.422C113.702 107.644 113.965 107.82 114.254 107.939C114.543 108.059 114.853 108.12 115.165 108.119H124.011C124.328 108.119 124.642 108.056 124.934 107.933C125.226 107.81 125.491 107.63 125.713 107.404C125.935 107.177 126.109 106.909 126.226 106.614C126.343 106.319 126.4 106.004 126.393 105.687C126.366 104.401 125.26 103.356 123.927 103.356H116.934C116.43 103.356 115.947 103.155 115.591 102.799L111.5 98.7084C110.758 97.9618 109.875 97.37 108.902 96.9672C107.929 96.5644 106.886 96.3586 105.834 96.3618H104.359L101.486 98.7502C100.235 99.7903 98.6591 100.36 97.0319 100.36C95.4048 100.36 93.8289 99.7903 92.5776 98.7502L89.7026 96.3618H88.4659C86.699 96.3638 85.0049 97.0667 83.7555 98.3161C82.506 99.5656 81.8032 101.26 81.8012 103.027C81.8012 103.531 81.6009 104.014 81.2445 104.371C80.8881 104.727 80.4047 104.927 79.9006 104.927C79.3965 104.927 78.9131 104.727 78.5567 104.371C78.2002 104.014 78 103.531 78 103.027C78.003 100.252 79.1066 97.5915 81.0687 95.6294C83.0308 93.6673 85.6911 92.5637 88.4659 92.5606H90.3893C90.8333 92.5608 91.2632 92.7163 91.6045 93.0003L95.0053 95.8271C95.5744 96.3012 96.2918 96.5608 97.0326 96.5608C97.7733 96.5608 98.4907 96.3012 99.0599 95.8271L102.458 92.999C102.799 92.7151 103.229 92.5595 103.673 92.5594H105.836C107.388 92.5551 108.926 92.8587 110.36 93.4527C111.794 94.0467 113.095 94.9192 114.19 96.0197L117.725 99.5548H123.934C127.322 99.5548 130.132 102.271 130.199 105.611C130.216 106.434 130.068 107.251 129.765 108.016C129.462 108.781 129.009 109.477 128.434 110.064C127.858 110.652 127.171 111.119 126.412 111.437C125.654 111.756 124.84 111.92 124.017 111.92H115.16C114.348 111.922 113.544 111.764 112.793 111.453C112.043 111.142 111.362 110.685 110.789 110.109L107.815 107.132C107.791 107.108 107.761 107.091 107.727 107.082C107.694 107.074 107.659 107.075 107.626 107.085C107.589 107.097 107.557 107.121 107.534 107.153C107.512 107.185 107.5 107.223 107.5 107.262V145.097C107.5 145.347 107.451 145.595 107.356 145.826C107.26 146.058 107.12 146.268 106.943 146.445C106.766 146.622 106.556 146.762 106.325 146.857C106.093 146.953 105.846 147.002 105.595 147.001Z" fill="#00B98E"/>
<path d="M84.1833 124.94C82.5439 124.939 80.9721 124.287 79.8129 123.128C78.6537 121.968 78.0017 120.397 78 118.757V103.025C78 102.521 78.2002 102.038 78.5567 101.681C78.9131 101.325 79.3965 101.125 79.9006 101.125C80.4047 101.125 80.8881 101.325 81.2445 101.681C81.6009 102.038 81.8012 102.521 81.8012 103.025V118.757C81.8012 119.389 82.0522 119.995 82.4989 120.442C82.9456 120.888 83.5515 121.139 84.1833 121.139C84.815 121.139 85.4209 120.888 85.8677 120.442C86.3144 119.995 86.5653 119.389 86.5653 118.757C86.5653 118.253 86.7656 117.77 87.122 117.413C87.4784 117.057 87.9619 116.857 88.4659 116.857C88.97 116.857 89.4534 117.057 89.8099 117.413C90.1663 117.77 90.3665 118.253 90.3665 118.757C90.3649 120.397 89.7129 121.968 88.5536 123.128C87.3944 124.287 85.8227 124.939 84.1833 124.94Z" fill="#00B98E"/>
<path d="M137.809 147.001H79.9045C79.4004 147.001 78.917 146.801 78.5606 146.445C78.2041 146.088 78.0039 145.605 78.0039 145.101C78.0039 144.597 78.2041 144.113 78.5606 143.757C78.917 143.4 79.4004 143.2 79.9045 143.2H137.809C138.313 143.2 138.797 143.4 139.153 143.757C139.51 144.113 139.71 144.597 139.71 145.101C139.71 145.605 139.51 146.088 139.153 146.445C138.797 146.801 138.313 147.001 137.809 147.001Z" fill="#00B98E"/>
<path d="M127.469 93.0268H117.615C117.111 93.0268 116.628 92.8265 116.272 92.4701C115.915 92.1137 115.715 91.6302 115.715 91.1262C115.715 90.6221 115.915 90.1387 116.272 89.7823C116.628 89.4258 117.111 89.2256 117.615 89.2256H127.469C127.973 89.2256 128.457 89.4258 128.813 89.7823C129.17 90.1387 129.37 90.6221 129.37 91.1262C129.37 91.6302 129.17 92.1137 128.813 92.4701C128.457 92.8265 127.973 93.0268 127.469 93.0268Z" fill="#00B98E"/>
<path d="M137.323 84.435H117.615C117.111 84.435 116.628 84.2347 116.272 83.8783C115.915 83.5219 115.715 83.0385 115.715 82.5344C115.715 82.0303 115.915 81.5469 116.272 81.1905C116.628 80.834 117.111 80.6338 117.615 80.6338H137.323C137.827 80.6338 138.311 80.834 138.667 81.1905C139.024 81.5469 139.224 82.0303 139.224 82.5344C139.224 83.0385 139.024 83.5219 138.667 83.8783C138.311 84.2347 137.827 84.435 137.323 84.435Z" fill="#00B98E"/>
</g>
<defs>
<linearGradient id="paint0_linear_10_14817" x1="42.071" y1="86.8562" x2="197.948" y2="86.2832" gradientUnits="userSpaceOnUse">
<stop stop-color="#00B98E"/>
<stop offset="1" stop-color="#169678"/>
</linearGradient>
<linearGradient id="paint1_linear_10_14817" x1="188.23" y1="187.354" x2="70.859" y2="65.6347" gradientUnits="userSpaceOnUse">
<stop stop-color="#00B98E"/>
<stop offset="1" stop-color="#0C9172"/>
</linearGradient>
<linearGradient id="paint2_linear_10_14817" x1="137.749" y1="179.863" x2="27.0198" y2="65.0317" gradientUnits="userSpaceOnUse">
<stop stop-color="#00B98E"/>
<stop offset="1" stop-color="#0D9273"/>
</linearGradient>
<linearGradient id="paint3_linear_10_14817" x1="45.2159" y1="62.1871" x2="31.4808" y2="47.9431" gradientUnits="userSpaceOnUse">
<stop stop-color="#00B98E"/>
<stop offset="1" stop-color="#0F9576"/>
</linearGradient>
<linearGradient id="paint4_linear_10_14817" x1="52.7362" y1="13.5764" x2="43.7659" y2="4.27386" gradientUnits="userSpaceOnUse">
<stop stop-color="#00B98E"/>
<stop offset="1" stop-color="#0B9A79"/>
</linearGradient>
<linearGradient id="paint5_linear_10_14817" x1="77.6781" y1="7.69448" x2="71.5054" y2="1.29313" gradientUnits="userSpaceOnUse">
<stop stop-color="#00B98E"/>
<stop offset="1" stop-color="#3DDAB6"/>
</linearGradient>
<linearGradient id="paint6_linear_10_14817" x1="1.91571" y1="163.201" x2="11.7348" y2="153.678" gradientUnits="userSpaceOnUse">
<stop stop-color="#00B98E"/>
<stop offset="1" stop-color="#119475"/>
</linearGradient>
<clipPath id="clip0_10_14817">
<rect width="214" height="211" fill="white"/>
</clipPath>
<clipPath id="clip1_10_14817">
<rect width="75" height="75" fill="white" transform="translate(78 72)"/>
</clipPath>
</defs>
</svg>
