<svg width="225" height="219" viewBox="0 0 225 219" fill="none" xmlns="http://www.w3.org/2000/svg">
<g clip-path="url(#clip0_22_14819)">
<g style="mix-blend-mode:multiply">
<path d="M11.066 88.6875C-0.261426 113.765 1.82201 145.707 18.2351 167.407C33.2036 187.198 57.4246 196.57 81.0831 200.564C116.258 206.502 154.312 201.862 183.596 180.398C212.88 158.938 230.955 118.521 221.318 82.2321C217.117 66.4164 208.082 52.258 196.523 41.2885C169.594 15.7388 128.448 9.741 95.2544 24.049C80.4357 30.4356 65.6792 39.709 51.2224 47.1337C34.0856 55.9375 19.3319 70.386 11.066 88.6875Z" fill="#74DBC5"/>
</g>
<g style="mix-blend-mode:multiply">
<path d="M27.872 162.205C33.1075 181.697 43.3409 200.812 60.1158 210.582C75.8278 219.733 94.7343 219.433 112.663 218.895C133.712 218.264 155.821 217.321 173.871 205.837C188.444 196.567 198.889 181.095 204.894 164.263C210.898 147.43 212.764 129.239 212.97 111.246C213.264 85.5524 209.911 58.7732 196.495 37.3577C183.675 16.8993 161.922 2.99223 138.84 0.506364C106.364 -2.9936 66.0693 17.5754 47.4625 45.6559C25.39 78.9653 17.3106 122.873 27.872 162.205Z" fill="#74DBC5"/>
</g>
<g style="mix-blend-mode:multiply">
<path d="M22.34 139.428C36.9862 169.653 65.5975 191.849 97.2448 197.533C121.192 201.835 145.676 197.141 169.557 192.457C184.413 189.543 200.376 186.001 210.542 174.176C219.78 163.428 222.234 147.92 221.929 133.397C220.903 84.5802 191.002 37.7555 148.584 18.5356C113.517 2.64521 71.5001 6.31268 38.722 26.6424C3.58903 48.4319 5.44349 104.557 22.34 139.428Z" fill="#74DBC5"/>
</g>
</g>
<path d="M139.047 93.6776C139.544 93.6776 140.021 93.48 140.373 93.1284C140.724 92.7768 140.922 92.2999 140.922 91.8026V81.9801C141.712 81.1953 142.161 80.131 142.172 79.0176C142.182 78.2432 141.981 77.4805 141.593 76.8106C141.204 76.1407 140.641 75.5885 139.964 75.2126L118.664 64.2126C118.022 63.8323 117.292 63.6277 116.546 63.6194C115.8 63.6111 115.065 63.7993 114.414 64.1651L92.9543 75.2501C92.2939 75.637 91.7491 76.1936 91.3763 76.862C91.0035 77.5304 90.8163 78.2864 90.8342 79.0516C90.852 79.8168 91.0743 80.5632 91.4778 81.2135C91.8814 81.8639 92.4516 82.3944 93.1293 82.7501L101.204 86.7001V93.5551C101.204 95.6794 101.622 97.783 102.434 99.7458C103.247 101.709 104.438 103.492 105.94 104.994C107.442 106.496 109.226 107.688 111.189 108.5C113.151 109.313 115.255 109.731 117.379 109.73C121.204 109.725 124.87 108.204 127.574 105.5C130.278 102.796 131.8 99.1294 131.804 95.3051V86.6926L137.172 84.0751V91.8026C137.172 92.2999 137.369 92.7768 137.721 93.1284C138.073 93.48 138.549 93.6776 139.047 93.6776ZM94.5818 78.9701C94.5757 78.8898 94.5891 78.8092 94.6209 78.7352C94.6527 78.6612 94.7019 78.596 94.7643 78.5451L116.224 67.4501C116.3 67.4052 116.386 67.381 116.474 67.3801C116.609 67.3853 116.74 67.4258 116.854 67.4976L138.149 78.5001C138.235 78.5447 138.305 78.613 138.353 78.6969C138.4 78.7807 138.422 78.8764 138.417 78.9726C138.421 79.0535 138.405 79.1343 138.371 79.2079C138.337 79.2815 138.286 79.3457 138.222 79.3951L116.749 89.8601C116.67 89.9043 116.58 89.9275 116.489 89.9275C116.398 89.9275 116.309 89.9043 116.229 89.8601L116.144 89.8176L94.8618 79.4376C94.7762 79.3934 94.7047 79.3263 94.6552 79.2437C94.6058 79.1611 94.5803 79.0663 94.5818 78.9701ZM128.054 95.3051C128.051 98.1353 126.925 100.849 124.924 102.85C122.923 104.851 120.209 105.977 117.379 105.98C115.747 105.981 114.131 105.66 112.624 105.036C111.116 104.411 109.746 103.496 108.592 102.342C107.438 101.188 106.523 99.8185 105.899 98.3107C105.275 96.8029 104.954 95.1869 104.954 93.5551V88.5276L114.472 93.1701C115.102 93.5089 115.806 93.6867 116.522 93.6876C117.209 93.6909 117.887 93.5188 118.489 93.1876L128.054 88.5226V95.3051Z" fill="white"/>
<path d="M83.2656 135.5C83.2656 135.998 83.4632 136.474 83.8148 136.826C84.1664 137.178 84.6433 137.375 85.1406 137.375H147.861C148.358 137.375 148.835 137.178 149.186 136.826C149.538 136.474 149.736 135.998 149.736 135.5C149.736 121.033 143.391 112.413 130.333 109.145C130.053 109.076 129.761 109.072 129.479 109.134C129.198 109.195 128.934 109.321 128.708 109.5C125.501 112.096 121.499 113.508 117.373 113.5C112.937 113.508 108.629 112.017 105.146 109.27C104.927 109.099 104.673 108.978 104.401 108.918C104.13 108.857 103.849 108.858 103.578 108.92C89.9106 112 83.2656 120.688 83.2656 135.5ZM130.291 113C140.581 115.848 145.476 122.273 145.946 133.615H118.376V117.163C122.669 116.972 126.812 115.525 130.291 113ZM103.568 112.75C106.823 115.111 110.631 116.592 114.626 117.05V133.625H87.0556C87.5406 121.968 92.6981 115.473 103.568 112.768V112.75Z" fill="white"/>
<defs>
<clipPath id="clip0_22_14819">
<rect width="225" height="219" fill="white"/>
</clipPath>
</defs>
</svg>
