<svg width="225" height="214" viewBox="0 0 225 214" fill="none" xmlns="http://www.w3.org/2000/svg">
<g clip-path="url(#clip0_22_14821)">
<g style="mix-blend-mode:multiply">
<path d="M10.4674 83.6875C-0.860059 108.765 1.22338 140.707 17.6365 162.407C32.605 182.198 56.826 191.57 80.4845 195.564C115.66 201.502 153.713 196.862 182.997 175.398C212.281 153.938 230.356 113.521 220.719 77.2321C216.519 61.4164 207.484 47.258 195.924 36.2885C168.995 10.7388 127.849 4.741 94.6558 19.049C79.8371 25.4356 65.0806 34.709 50.6238 42.1337C33.487 50.9375 18.7333 65.386 10.4674 83.6875Z" fill="#74DBC5"/>
</g>
<g style="mix-blend-mode:multiply">
<path d="M27.2734 157.205C32.5088 176.697 42.7423 195.812 59.5172 205.582C75.2292 214.733 94.1356 214.433 112.064 213.895C133.113 213.264 155.222 212.321 173.272 200.837C187.845 191.567 198.291 176.095 204.295 159.263C210.299 142.43 212.165 124.239 212.371 106.246C212.665 80.5524 209.313 53.7732 195.896 32.3577C183.076 11.8993 161.323 -2.00777 138.241 -4.49364C105.766 -7.9936 65.4707 12.5754 46.8639 40.6559C24.7913 73.9653 16.712 117.873 27.2734 157.205Z" fill="#74DBC5"/>
</g>
<g style="mix-blend-mode:multiply">
<path d="M21.7413 134.428C36.3876 164.653 64.9988 186.849 96.6462 192.533C120.593 196.835 145.077 192.141 168.959 187.457C183.814 184.543 199.778 181.001 209.943 169.176C219.182 158.428 221.635 142.92 221.33 128.397C220.304 79.5802 190.404 32.7555 147.986 13.5356C112.918 -2.35479 70.9014 1.31268 38.1233 21.6424C2.99039 43.4319 4.84485 99.5569 21.7413 134.428Z" fill="#74DBC5"/>
</g>
</g>
<g clip-path="url(#clip1_22_14821)">
<path d="M95.466 111.658C94.962 111.658 94.4785 111.457 94.1221 111.101C93.7657 110.744 93.5654 110.261 93.5654 109.757V96.1994C93.5654 95.6954 93.7657 95.2119 94.1221 94.8555C94.4785 94.4991 94.962 94.2988 95.466 94.2988C95.9701 94.2988 96.4535 94.4991 96.8099 94.8555C97.1664 95.2119 97.3666 95.6954 97.3666 96.1994V109.757C97.3666 110.261 97.1664 110.744 96.8099 111.101C96.4535 111.457 95.9701 111.658 95.466 111.658Z" fill="white"/>
<path d="M104.03 81.3851C102.212 81.3851 100.435 80.846 98.9231 79.8359C97.4114 78.8258 96.2332 77.3901 95.5374 75.7104C94.8416 74.0307 94.6596 72.1824 95.0143 70.3992C95.369 68.616 96.2445 66.978 97.5301 65.6924C98.8157 64.4068 100.454 63.5313 102.237 63.1766C104.02 62.8219 105.868 63.004 107.548 63.6997C109.228 64.3955 110.663 65.5737 111.674 67.0854C112.684 68.5972 113.223 70.3744 113.223 72.1925C113.22 74.6297 112.251 76.9663 110.527 78.6897C108.804 80.413 106.467 81.3824 104.03 81.3851ZM104.03 66.8012C102.964 66.8012 101.922 67.1174 101.035 67.7098C100.148 68.3022 99.4573 69.1442 99.0492 70.1294C98.6412 71.1145 98.5344 72.1985 98.7424 73.2443C98.9505 74.2902 99.4639 75.2508 100.218 76.0048C100.972 76.7588 101.933 77.2723 102.978 77.4803C104.024 77.6883 105.108 77.5816 106.093 77.1735C107.079 76.7655 107.921 76.0744 108.513 75.1878C109.105 74.3012 109.422 73.2589 109.422 72.1925C109.42 70.7632 108.851 69.3928 107.841 68.3821C106.83 67.3714 105.46 66.8029 104.03 66.8012Z" fill="white"/>
<path d="M133.999 95.604C133.632 95.6043 133.273 95.4983 132.965 95.2988C132.657 95.0993 132.413 94.8149 132.264 94.4799C132.114 94.145 132.064 93.7737 132.12 93.4111C132.177 93.0485 132.337 92.7099 132.582 92.4364L142.908 80.8605C143.075 80.6742 143.276 80.5225 143.501 80.4141C143.726 80.3057 143.97 80.2427 144.22 80.2286C144.469 80.2145 144.719 80.2497 144.954 80.3322C145.19 80.4146 145.407 80.5427 145.594 80.7091C145.78 80.8755 145.932 81.0769 146.04 81.3019C146.149 81.527 146.212 81.7711 146.226 82.0205C146.24 82.2699 146.205 82.5196 146.122 82.7554C146.04 82.9911 145.912 83.2084 145.745 83.3946L135.419 94.9642C135.241 95.165 135.022 95.3258 134.778 95.4361C134.533 95.5464 134.268 95.6036 133.999 95.604Z" fill="white"/>
<path d="M154.298 112.766H120.198C119.694 112.766 119.211 112.566 118.854 112.21C118.498 111.853 118.297 111.37 118.297 110.866C118.297 110.362 118.498 109.878 118.854 109.522C119.211 109.165 119.694 108.965 120.198 108.965H154.298C154.803 108.965 155.286 108.765 155.642 108.408C155.999 108.052 156.199 107.569 156.199 107.065V68.7448C156.199 68.2407 155.999 67.7573 155.642 67.4008C155.286 67.0444 154.803 66.8442 154.298 66.8442H117.014C116.51 66.8442 116.026 66.6439 115.67 66.2875C115.314 65.9311 115.113 65.4476 115.113 64.9436C115.113 64.4395 115.314 63.9561 115.67 63.5996C116.026 63.2432 116.51 63.043 117.014 63.043H154.298C155.811 63.043 157.261 63.6437 158.33 64.713C159.4 65.7823 160 67.2325 160 68.7448V107.065C160 108.577 159.4 110.027 158.33 111.096C157.261 112.166 155.811 112.766 154.298 112.766Z" fill="white"/>
<path d="M104.03 138.001H95.466C94.962 138.001 94.4785 137.801 94.1221 137.444C93.7657 137.088 93.5654 136.605 93.5654 136.101V109.757C93.5654 109.253 93.7657 108.77 94.1221 108.413C94.4785 108.057 94.962 107.856 95.466 107.856C95.9701 107.856 96.4535 108.057 96.8099 108.413C97.1664 108.77 97.3666 109.253 97.3666 109.757V134.2H104.03C104.534 134.2 105.018 134.4 105.374 134.757C105.73 135.113 105.931 135.596 105.931 136.101C105.931 136.605 105.73 137.088 105.374 137.444C105.018 137.801 104.534 138.001 104.03 138.001Z" fill="white"/>
<path d="M112.595 138.001H104.03C103.526 138.001 103.043 137.801 102.686 137.445C102.33 137.088 102.129 136.605 102.129 136.101V110.866C102.129 110.362 102.33 109.878 102.686 109.522C103.043 109.165 103.526 108.965 104.03 108.965C104.534 108.965 105.018 109.165 105.374 109.522C105.73 109.878 105.931 110.362 105.931 110.866V134.2H110.695V98.2662C110.695 97.4774 110.928 96.7062 111.367 96.0504C111.805 95.3945 112.428 94.8833 113.157 94.5815C113.885 94.2797 114.687 94.2009 115.461 94.3549C116.235 94.509 116.945 94.889 117.503 95.447L120.482 98.422C120.702 98.6437 120.965 98.8195 121.254 98.9391C121.543 99.0587 121.853 99.1199 122.165 99.1189H131.011C131.328 99.119 131.642 99.0558 131.934 98.933C132.226 98.8102 132.491 98.6303 132.713 98.4038C132.935 98.1774 133.109 97.9089 133.226 97.6142C133.343 97.3194 133.4 97.0044 133.393 96.6874C133.366 95.4013 132.26 94.356 130.927 94.356H123.934C123.43 94.3556 122.947 94.155 122.591 93.7985L118.5 89.7084C117.758 88.9618 116.875 88.37 115.902 87.9672C114.929 87.5644 113.886 87.3586 112.834 87.3618H111.359L108.486 89.7502C107.235 90.7903 105.659 91.3597 104.032 91.3597C102.405 91.3597 100.829 90.7903 99.5776 89.7502L96.7026 87.3618H95.4659C93.699 87.3638 92.0049 88.0667 90.7555 89.3161C89.506 90.5656 88.8032 92.2596 88.8012 94.0266C88.8012 94.5306 88.6009 95.0141 88.2445 95.3705C87.8881 95.7269 87.4047 95.9272 86.9006 95.9272C86.3965 95.9272 85.9131 95.7269 85.5567 95.3705C85.2002 95.0141 85 94.5306 85 94.0266C85.003 91.2518 86.1066 88.5915 88.0687 86.6294C90.0308 84.6673 92.6911 83.5637 95.4659 83.5606H97.3893C97.8333 83.5608 98.2632 83.7163 98.6045 84.0003L102.005 86.8271C102.574 87.3012 103.292 87.5608 104.033 87.5608C104.773 87.5608 105.491 87.3012 106.06 86.8271L109.458 83.999C109.799 83.7151 110.229 83.5595 110.673 83.5594H112.836C114.388 83.5551 115.926 83.8587 117.36 84.4527C118.794 85.0467 120.095 85.9192 121.19 87.0197L124.725 90.5548H130.934C134.322 90.5548 137.132 93.2714 137.199 96.6114C137.216 97.4338 137.068 98.2512 136.765 99.0159C136.462 99.7805 136.009 100.477 135.434 101.064C134.858 101.652 134.171 102.119 133.412 102.437C132.654 102.756 131.84 102.92 131.017 102.92H122.16C121.348 102.922 120.544 102.764 119.793 102.453C119.043 102.142 118.362 101.685 117.789 101.109L114.815 98.1319C114.791 98.1078 114.761 98.0907 114.727 98.0824C114.694 98.0742 114.659 98.0751 114.626 98.085C114.589 98.0975 114.557 98.1214 114.534 98.1532C114.512 98.185 114.5 98.2232 114.5 98.2624V136.097C114.5 136.347 114.451 136.595 114.356 136.826C114.26 137.058 114.12 137.268 113.943 137.445C113.766 137.622 113.556 137.762 113.325 137.857C113.093 137.953 112.846 138.002 112.595 138.001Z" fill="white"/>
<path d="M91.1833 115.94C89.5439 115.939 87.9721 115.287 86.8129 114.128C85.6537 112.968 85.0017 111.397 85 109.757V94.0254C85 93.5213 85.2002 93.0379 85.5567 92.6814C85.9131 92.325 86.3965 92.1248 86.9006 92.1248C87.4047 92.1248 87.8881 92.325 88.2445 92.6814C88.6009 93.0379 88.8012 93.5213 88.8012 94.0254V109.757C88.8012 110.389 89.0522 110.995 89.4989 111.442C89.9456 111.888 90.5515 112.139 91.1833 112.139C91.815 112.139 92.4209 111.888 92.8677 111.442C93.3144 110.995 93.5653 110.389 93.5653 109.757C93.5653 109.253 93.7656 108.77 94.122 108.413C94.4784 108.057 94.9619 107.857 95.4659 107.857C95.97 107.857 96.4534 108.057 96.8099 108.413C97.1663 108.77 97.3665 109.253 97.3665 109.757C97.3649 111.397 96.7129 112.968 95.5536 114.128C94.3944 115.287 92.8227 115.939 91.1833 115.94Z" fill="white"/>
<path d="M144.809 138.001H86.9045C86.4004 138.001 85.917 137.801 85.5606 137.445C85.2041 137.088 85.0039 136.605 85.0039 136.101C85.0039 135.597 85.2041 135.113 85.5606 134.757C85.917 134.4 86.4004 134.2 86.9045 134.2H144.809C145.313 134.2 145.797 134.4 146.153 134.757C146.51 135.113 146.71 135.597 146.71 136.101C146.71 136.605 146.51 137.088 146.153 137.445C145.797 137.801 145.313 138.001 144.809 138.001Z" fill="white"/>
<path d="M134.47 84.0268H124.616C124.112 84.0268 123.629 83.8265 123.272 83.4701C122.916 83.1137 122.716 82.6302 122.716 82.1262C122.716 81.6221 122.916 81.1387 123.272 80.7823C123.629 80.4258 124.112 80.2256 124.616 80.2256H134.47C134.974 80.2256 135.458 80.4258 135.814 80.7823C136.171 81.1387 136.371 81.6221 136.371 82.1262C136.371 82.6302 136.171 83.1137 135.814 83.4701C135.458 83.8265 134.974 84.0268 134.47 84.0268Z" fill="white"/>
<path d="M144.324 75.435H124.616C124.112 75.435 123.629 75.2347 123.272 74.8783C122.916 74.5219 122.716 74.0385 122.716 73.5344C122.716 73.0303 122.916 72.5469 123.272 72.1905C123.629 71.834 124.112 71.6338 124.616 71.6338H144.324C144.828 71.6338 145.312 71.834 145.668 72.1905C146.025 72.5469 146.225 73.0303 146.225 73.5344C146.225 74.0385 146.025 74.5219 145.668 74.8783C145.312 75.2347 144.828 75.435 144.324 75.435Z" fill="white"/>
</g>
<defs>
<clipPath id="clip0_22_14821">
<rect width="225" height="214" fill="white"/>
</clipPath>
<clipPath id="clip1_22_14821">
<rect width="75" height="75" fill="white" transform="translate(85 63)"/>
</clipPath>
</defs>
</svg>
