<svg width="225" height="214" viewBox="0 0 225 214" fill="none" xmlns="http://www.w3.org/2000/svg">
<g clip-path="url(#clip0_22_14820)">
<g style="mix-blend-mode:multiply">
<path d="M10.4674 83.57C-0.860059 108.647 1.22338 140.589 17.6365 162.289C32.605 182.08 56.826 191.453 80.4845 195.446C115.66 201.384 153.713 196.744 182.997 175.281C212.281 153.82 230.356 113.403 220.719 77.1145C216.519 61.2989 207.484 47.1405 195.924 36.171C168.995 10.6212 127.849 4.62344 94.6558 18.9314C79.8371 25.3181 65.0806 34.5915 50.6238 42.0162C33.487 50.8199 18.7333 65.2685 10.4674 83.57Z" fill="#74DBC5"/>
</g>
<g style="mix-blend-mode:multiply">
<path d="M27.2734 157.087C32.5088 176.579 42.7423 195.694 59.5172 205.464C75.2292 214.615 94.1356 214.316 112.064 213.777C133.113 213.146 155.222 212.204 173.272 200.72C187.845 191.449 198.291 175.978 204.295 159.145C210.299 142.312 212.165 124.122 212.371 106.128C212.665 80.4349 209.313 53.6557 195.896 32.2401C183.076 11.7818 161.323 -2.12532 138.241 -4.61119C105.766 -8.11115 65.4707 12.4578 46.8639 40.5383C24.7913 73.8478 16.712 117.756 27.2734 157.087Z" fill="#74DBC5"/>
</g>
<g style="mix-blend-mode:multiply">
<path d="M21.7413 134.31C36.3876 164.536 64.9988 186.732 96.6462 192.416C120.593 196.717 145.077 192.024 168.959 187.339C183.814 184.426 199.778 180.884 209.943 169.059C219.182 158.31 221.635 142.803 221.33 128.28C220.304 79.4626 190.404 32.6379 147.986 13.4181C112.918 -2.47235 70.9014 1.19513 38.1233 21.5248C2.99039 43.3143 4.84485 99.4393 21.7413 134.31Z" fill="#74DBC5"/>
</g>
</g>
<g clip-path="url(#clip1_22_14820)">
<path d="M146.881 89.5227L143.826 87.9954C152.298 82.3481 148.357 68.9287 138.035 68.8856C127.712 68.9292 123.773 82.3518 132.246 87.9963L129.187 89.5265C128.871 89.6845 128.567 89.8594 128.276 90.0482C127.715 87.2957 125.932 84.9329 123.346 83.641L120.291 82.1139C128.763 76.4665 124.822 63.0474 114.5 63.0042C104.177 63.0477 100.237 76.4708 108.711 82.1151L105.652 83.6458C103.069 84.9374 101.288 87.2973 100.726 90.0462C100.433 89.8566 100.128 89.6812 99.8108 89.5225L96.7561 87.9953C105.228 82.3481 101.287 68.9289 90.9646 68.8858C80.6416 68.9293 76.7021 82.352 85.1754 87.9964L82.1161 89.5266C78.9604 91.1059 77 94.2789 77 97.8071V107.565C77 108.778 77.9838 109.762 79.1973 109.762H86.4141V131.041C86.4141 131.768 86.7736 132.448 87.3743 132.857C87.9752 133.266 88.7393 133.352 89.4157 133.086C89.4586 133.069 93.9866 131.319 99.1962 131.024C105.679 130.656 110.184 132.629 112.587 136.887C113.398 138.366 115.603 138.366 116.414 136.887C118.817 132.629 123.321 130.656 129.804 131.024C135.014 131.319 139.542 133.069 139.585 133.086C140.261 133.352 141.025 133.266 141.626 132.857C142.227 132.448 142.586 131.768 142.586 131.041V109.762H149.803C151.016 109.762 152 108.778 152 107.565V97.8036C152 94.2729 150.038 91.0997 146.881 89.5227ZM131.995 79.3203C131.995 75.9898 134.705 73.2803 138.035 73.2803C146.037 73.584 146.035 85.058 138.035 85.3604C134.705 85.3603 131.995 82.6508 131.995 79.3203ZM108.46 73.4388C108.46 70.1083 111.17 67.3988 114.5 67.3988C122.502 67.7025 122.5 79.1765 114.5 79.479C111.17 79.479 108.46 76.7694 108.46 73.4388ZM84.9248 79.3203C84.9248 75.9898 87.6343 73.2803 90.9648 73.2803C98.9668 73.584 98.9646 85.058 90.9646 85.3604C87.6343 85.3603 84.9248 82.6508 84.9248 79.3203ZM87.8072 100.715C86.9667 101.046 86.4141 101.857 86.4141 102.76V105.368H81.3945V97.8071C81.3945 95.9533 82.4246 94.2862 84.0824 93.4566L90.9652 90.0141L97.846 93.4536C99.5048 94.2821 100.535 95.9489 100.535 97.8036V98.3082C99.9789 98.3107 99.4125 98.328 98.8348 98.3628C92.9454 98.717 88.0142 100.634 87.8072 100.715ZM112.303 130.001C108.917 127.46 104.363 126.31 98.8347 126.643C95.6977 126.832 92.8328 127.464 90.8085 128.026V104.33C92.5479 103.785 95.7201 102.94 99.1959 102.744C105.432 102.391 109.838 104.202 112.303 108.13V130.001ZM114.5 103.749C112.129 101.068 108.9 99.3545 104.93 98.6601V91.9256C104.93 90.0718 105.96 88.4053 107.618 87.576L114.5 84.1326L121.381 87.5721C123.04 88.4006 124.07 90.0674 124.07 91.9221V98.6601C120.1 99.3547 116.871 101.068 114.5 103.749ZM138.191 128.026C136.167 127.464 133.302 126.832 130.165 126.643C124.637 126.311 120.083 127.46 116.697 130.001V108.131C119.162 104.203 123.568 102.391 129.804 102.744C133.28 102.941 136.452 103.785 138.191 104.33V128.026ZM147.605 105.368H142.586V102.76C142.586 101.857 142.033 101.046 141.193 100.715C140.986 100.634 136.055 98.717 130.165 98.3628C129.587 98.328 129.021 98.3108 128.465 98.3082V97.8071C128.465 95.9535 129.495 94.2863 131.153 93.4566L138.036 90.0141L144.916 93.4536C146.575 94.2821 147.605 95.9489 147.605 97.8036V105.368Z" fill="white"/>
<path d="M105.526 117.626C103.21 117.152 100.619 117.039 97.8264 117.292C96.6177 117.402 95.7268 118.47 95.8362 119.679C95.9458 120.888 97.0151 121.779 98.2228 121.669C100.588 121.455 102.749 121.543 104.644 121.931C106.322 122.274 107.113 120.826 107.238 120.219C107.481 119.03 106.715 117.869 105.526 117.626Z" fill="white"/>
<path d="M105.526 108.2C103.207 107.725 100.617 107.613 97.8267 107.865C94.9357 108.236 95.3158 112.398 98.2231 112.242C100.586 112.028 102.747 112.117 104.645 112.505C106.323 112.848 107.114 111.4 107.238 110.793C107.481 109.604 106.715 108.443 105.526 108.2Z" fill="white"/>
<path d="M131.173 117.292C128.38 117.039 125.79 117.152 123.474 117.626C122.285 117.869 121.519 119.03 121.762 120.219C121.886 120.826 122.677 122.274 124.355 121.931C126.251 121.543 128.411 121.455 130.777 121.669C131.984 121.779 133.054 120.888 133.163 119.679C133.273 118.47 132.382 117.402 131.173 117.292Z" fill="white"/>
<path d="M123.474 108.2C122.285 108.443 121.518 109.604 121.762 110.793C121.886 111.4 122.677 112.848 124.355 112.505C126.254 112.117 128.414 112.028 130.777 112.242C133.686 112.397 134.062 108.235 131.173 107.865C128.383 107.613 125.793 107.725 123.474 108.2Z" fill="white"/>
</g>
<defs>
<clipPath id="clip0_22_14820">
<rect width="225" height="214" fill="white"/>
</clipPath>
<clipPath id="clip1_22_14820">
<rect width="75" height="75" fill="white" transform="translate(77 63)"/>
</clipPath>
</defs>
</svg>
