<svg width="259" height="256" viewBox="0 0 259 256" fill="none" xmlns="http://www.w3.org/2000/svg">
<g clip-path="url(#clip0_22_14824)">
<path d="M205.329 117.775C205.027 118.417 204.216 119.115 202.708 119.909C197.654 122.552 188.47 118.039 192.204 128.651C193.599 132.617 200.52 135.94 199.577 140.51C198.333 146.609 189.017 143.38 190.224 151.179C188.149 150.971 184.095 150.556 182.454 152.161C179.833 154.71 182.68 155.447 182.209 157.316C180.191 165.096 178.23 159.96 172.289 162.736C175.872 170.78 170.196 169.005 164.727 169.647C164.35 178.39 166.707 184.074 173.006 189.814C177.362 193.78 185.452 199.35 180.417 205.808C169.291 220.122 154.959 177.181 148.32 173.726C139.212 168.948 143.719 177.975 139.382 179.806C136.421 181.052 136.345 173.48 132.819 174.198C129.292 174.915 132.234 183.205 128.161 183.3C123.786 183.413 126.897 174.198 120.957 179.938C117.261 183.507 118.939 190.305 118.864 194.762C118.769 199.728 117.393 203.939 116.601 208.735C116.261 210.794 114.941 237.664 110.17 230.508C106.738 225.371 110 218.592 110.302 213.116C110.585 208.018 108.793 203.656 109.491 198.689C110.453 191.778 117.789 178.956 106.474 176.539C102.042 175.595 97.5727 179.598 97.2521 172.819C90.3123 172.744 89.5579 176.672 85.7486 181.109C83.3724 183.866 76.6589 188.927 77.2057 182.129C77.7338 175.425 93.8388 172.215 92.1415 165.077C91.5192 162.452 86.7481 162.774 85.8806 160.338C84.6548 156.844 91.4438 151.5 89.4825 148.215C88.8413 147.157 83.0707 146.477 82.9952 146.817C84.3908 139.037 81.0528 141.209 76.772 137.904C71.0957 133.523 77.9601 135.355 75.9611 129.369C73.1701 121.042 61.6665 133.24 57.5365 134.335C46.0141 137.376 52.0488 127.065 58.6303 124.327C61.7231 123.043 64.8536 122.439 67.7766 120.721C72.4723 117.982 71.3597 118.228 71.8688 114.357C72.0197 113.167 69.6058 112.318 70.0773 110.448C70.4733 108.862 73.7547 108.919 74.3393 107.559C76.904 101.743 67.7766 94.4729 70.4168 89.7332C73.8301 83.5583 67.9086 81.5378 63.1752 79.9139C55.3867 77.2325 47.8999 75.2497 44.3734 66.8467C41.8276 60.7852 42.6573 55.9699 49.2766 59.7655C54.8209 62.9378 57.9703 70.2079 62.3454 74.7021C67.0411 79.5362 72.4723 81.9344 79.035 83.2373C80.0534 79.4418 77.0549 75.4952 78.0544 72.1529C78.9784 69.0183 82.4295 68.2063 84.2399 65.6004C86.0691 62.9567 87.0309 60.7285 89.0676 58.217C92.0661 54.5348 93.141 55.0635 90.9157 49.4741C89.6711 46.3395 84.5793 41.7697 85.9937 37.9931C87.6155 33.6311 90.878 35.1606 93.2542 37.8798C97.7047 42.9405 95.5926 49.9462 104.399 50.1917C117.374 50.5693 109.661 37.0301 110.038 28.6459C117.77 28.0228 115.186 38.7484 118.034 42.5251C122.749 48.7943 124.993 40.75 128.783 37.9176C132.31 42.2796 134.761 41.7509 137.024 37.5399C137.911 35.8971 138.854 25.8889 143.229 32.6114C145.322 35.8215 139.532 42.0152 144.473 44.2434C148.924 46.2451 149.886 39.8625 152.696 37.9364C157.75 44.5645 159.937 31.9316 161.559 28.8347C164.388 23.3775 168.951 17.8825 175.231 16.6739C176.966 28.6648 162.219 34.3109 162.219 44.8288C164.444 45.2631 167.028 44.8855 168.933 44.3756C169.781 50.9848 165.481 62.7679 176.947 57.2162C183.133 54.2138 186.546 46.5094 194.09 46.2828C195.938 46.2262 183.133 63.2022 182.831 64.3541C181.492 69.3582 185.49 74.3056 184.585 79.2718C183.717 83.9927 180.191 85.0312 182.228 89.9786C185.867 98.816 199.917 99.1181 207.441 97.7019C219.19 95.4737 229.109 87.335 240.915 85.6733C251.664 84.1626 262.432 91.4704 257.963 103.386C253.154 116.151 239.425 113.054 228.959 110.675C223.207 109.372 217.285 107.502 211.326 107.559C208.592 107.578 205.951 107.993 203.292 108.598C202.651 108.749 194.203 111.619 195.428 112.185C198.182 113.469 206.668 114.98 205.348 117.794L205.329 117.775ZM47.5605 185.584C59.2526 190.796 82.8821 171.705 67.7766 157.694C57.3668 148.045 40.7149 164.605 41.7333 175.803C42.2047 181.128 44.4677 184.225 47.5605 185.603V185.584ZM212.137 76.1939C223.735 70.8499 209.195 49.814 200.596 53.4773C196.353 55.2901 196.221 60.7096 195.806 64.5996C195.353 68.7539 189.13 73.0593 190.337 76.6471C191.072 78.7998 194.467 80.1216 196.541 79.574C199.125 78.8753 198.71 76.4582 200.445 75.3441C204.348 72.8138 207.743 78.2333 212.137 76.2128V76.1939ZM227.431 166.588C230.373 157.788 230.184 147.724 224.489 142.738C221.321 139.963 217.417 138.584 215.211 142.965C213.118 147.119 214.645 151.481 215.588 155.655C216.493 159.639 217.059 163.623 214.909 167.117C212.872 170.421 209.949 173.329 210.251 177.559C210.515 181.26 212.929 183.47 216.38 181.713C221.151 179.259 225.187 173.31 227.431 166.607V166.588ZM8.59922 173.367C5.65732 171.346 -2.50832 173.707 0.754164 177.993C4.5824 183.035 7.7506 172.782 8.59922 173.367ZM36.3021 150.783C29.928 154.729 23.8367 157.26 16.6894 159.828C14.4642 160.621 -1.79171 165.7 2.07425 168.911C7.5243 173.443 30.7766 157.732 36.0758 155.352C42.0727 152.652 49.3897 149.329 54.0477 144.664C49.2012 142.512 40.4698 148.177 36.3021 150.764V150.783ZM40.9789 38.5218C42.9025 34.6696 35.6986 35.8215 35.7929 35.1228C35.4535 37.521 39.3383 41.8075 40.9789 38.5218ZM28.2307 30.0433C26.5712 33.5933 33.6053 34.1976 34.4162 31.4028C35.4157 27.9094 29.4188 27.5318 28.2307 30.0433ZM30.6257 72.5494C29.6262 67.0166 23.2521 64.7695 20.1405 60.8229C18.0661 58.1982 17.3118 54.3649 13.4269 58.2548C4.84642 66.8467 30.192 70.1701 30.6257 72.5305V72.5494ZM64.6084 55.2713C60.0258 52.0045 57.2725 47.7557 53.3688 43.8091C51.9922 42.4118 44.0906 35.4627 44.2603 39.5415C44.4677 44.0546 52.822 48.0201 56.009 50.0784C63.3826 54.8369 68.3801 61.7482 74.7542 67.4509C74.2639 61.1439 69.2475 58.5758 64.5895 55.2713H64.6084ZM84.8245 22.6221C85.56 25.9078 89.2374 28.627 91.7078 30.6098C91.6324 28.0039 89.2939 27.0786 88.5396 24.7371C87.955 22.8865 89.9917 18.7322 88.0304 17.6559C84.9942 16.013 84.3719 20.6583 84.8245 22.6221ZM125.03 15.201C124.842 11.3677 128.953 5.53282 127.237 2.34155C125.672 -0.547581 122.239 -0.528698 119.976 1.22744C114.979 5.07962 117.317 21.1681 120.787 25.4546C128.293 34.6696 125.219 18.8455 125.03 15.201ZM188.489 34.7452C191.167 33.0646 198.276 30.0621 196.881 25.8323C196.239 23.9251 195.391 22.962 194.429 22.6788C189.205 21.1115 180.926 39.5415 188.489 34.7641V34.7452ZM148.207 194.554C146.114 200.559 154.016 203.656 155.845 197.859C157.486 192.628 150.376 188.379 148.207 194.554ZM167.066 249.617C164.972 255.622 172.874 258.719 174.703 252.922C176.344 247.691 169.234 243.443 167.066 249.617ZM164.557 241.592C163.784 243.254 162.917 244.821 164.727 246.445C167.311 248.768 171.233 247.012 171.441 243.632C171.61 240.723 169.197 237.287 167.066 235.587C165.802 234.568 165.387 233.926 164.935 232.339C164.595 231.131 164.52 227.977 163.049 227.449C161.201 226.788 160.899 229.45 161.031 230.715C161.276 233.283 163.068 235.077 164.557 237.003C165.84 238.646 165.236 240.157 164.557 241.592ZM153.544 225.428C153.714 225.598 153.902 225.749 154.11 225.881C156.448 227.392 158.353 224.012 159.39 222.275C161.201 219.215 164.105 211.473 161.842 208.339C160.465 206.45 156.958 207.036 155.053 207.697C151.677 208.867 146.793 211.851 146.057 215.684C145.492 218.63 147.717 218.989 149.791 220.084C151.79 221.16 152.092 223.936 153.544 225.428Z" fill="url(#paint0_linear_22_14824)"/>
</g>
<g clip-path="url(#clip1_22_14824)">
<path d="M163.881 98.5227L160.826 96.9954C169.298 91.3481 165.357 77.9287 155.035 77.8856C144.712 77.9292 140.773 91.3518 149.246 96.9963L146.187 98.5265C145.871 98.6845 145.567 98.8594 145.276 99.0482C144.715 96.2957 142.932 93.9329 140.346 92.641L137.291 91.1139C145.763 85.4665 141.822 72.0474 131.5 72.0042C121.177 72.0477 117.237 85.4708 125.711 91.1151L122.652 92.6458C120.069 93.9374 118.288 96.2973 117.726 99.0462C117.433 98.8566 117.128 98.6812 116.811 98.5225L113.756 96.9953C122.228 91.3481 118.287 77.9289 107.965 77.8858C97.6416 77.9293 93.7021 91.352 102.175 96.9964L99.1161 98.5266C95.9604 100.106 94 103.279 94 106.807V116.565C94 117.778 94.9838 118.762 96.1973 118.762H103.414V140.041C103.414 140.768 103.774 141.448 104.374 141.857C104.975 142.266 105.739 142.352 106.416 142.086C106.459 142.069 110.987 140.319 116.196 140.024C122.679 139.656 127.184 141.629 129.587 145.887C130.398 147.366 132.603 147.366 133.414 145.887C135.817 141.629 140.321 139.656 146.804 140.024C152.014 140.319 156.542 142.069 156.585 142.086C157.261 142.352 158.025 142.266 158.626 141.857C159.227 141.448 159.586 140.768 159.586 140.041V118.762H166.803C168.016 118.762 169 117.778 169 116.565V106.804C169 103.273 167.038 100.1 163.881 98.5227ZM148.995 88.3203C148.995 84.9898 151.705 82.2803 155.035 82.2803C163.037 82.584 163.035 94.058 155.035 94.3604C151.705 94.3603 148.995 91.6508 148.995 88.3203ZM125.46 82.4388C125.46 79.1083 128.17 76.3988 131.5 76.3988C139.502 76.7025 139.5 88.1765 131.5 88.479C128.17 88.479 125.46 85.7694 125.46 82.4388ZM101.925 88.3203C101.925 84.9898 104.634 82.2803 107.965 82.2803C115.967 82.584 115.965 94.058 107.965 94.3604C104.634 94.3603 101.925 91.6508 101.925 88.3203ZM104.807 109.715C103.967 110.046 103.414 110.857 103.414 111.76V114.368H98.3945V106.807C98.3945 104.953 99.4246 103.286 101.082 102.457L107.965 99.0141L114.846 102.454C116.505 103.282 117.535 104.949 117.535 106.804V107.308C116.979 107.311 116.413 107.328 115.835 107.363C109.945 107.717 105.014 109.634 104.807 109.715ZM129.303 139.001C125.917 136.46 121.363 135.31 115.835 135.643C112.698 135.832 109.833 136.464 107.808 137.026V113.33C109.548 112.785 112.72 111.94 116.196 111.744C122.432 111.391 126.838 113.202 129.303 117.13V139.001ZM131.5 112.749C129.129 110.068 125.9 108.355 121.93 107.66V100.926C121.93 99.0718 122.96 97.4053 124.618 96.576L131.5 93.1326L138.381 96.5721C140.04 97.4006 141.07 99.0674 141.07 100.922V107.66C137.1 108.355 133.871 110.068 131.5 112.749ZM155.191 137.026C153.167 136.464 150.302 135.832 147.165 135.643C141.637 135.311 137.083 136.46 133.697 139.001V117.131C136.162 113.203 140.568 111.391 146.804 111.744C150.28 111.941 153.452 112.785 155.191 113.33V137.026ZM164.605 114.368H159.586V111.76C159.586 110.857 159.033 110.046 158.193 109.715C157.986 109.634 153.055 107.717 147.165 107.363C146.587 107.328 146.021 107.311 145.465 107.308V106.807C145.465 104.953 146.495 103.286 148.153 102.457L155.036 99.0141L161.916 102.454C163.575 103.282 164.605 104.949 164.605 106.804V114.368Z" fill="white"/>
<path d="M122.526 126.626C120.21 126.152 117.619 126.039 114.826 126.292C113.618 126.402 112.727 127.47 112.836 128.679C112.946 129.888 114.015 130.779 115.223 130.669C117.588 130.455 119.749 130.543 121.644 130.931C123.322 131.274 124.113 129.826 124.238 129.219C124.481 128.03 123.715 126.869 122.526 126.626Z" fill="white"/>
<path d="M122.526 117.2C120.207 116.725 117.617 116.613 114.827 116.865C111.936 117.236 112.316 121.398 115.223 121.242C117.586 121.028 119.747 121.117 121.645 121.505C123.323 121.848 124.114 120.4 124.238 119.793C124.481 118.604 123.715 117.443 122.526 117.2Z" fill="white"/>
<path d="M148.173 126.292C145.38 126.039 142.79 126.152 140.474 126.626C139.285 126.869 138.519 128.03 138.762 129.219C138.886 129.826 139.677 131.274 141.355 130.931C143.251 130.543 145.411 130.455 147.777 130.669C148.984 130.779 150.054 129.888 150.163 128.679C150.273 127.47 149.382 126.402 148.173 126.292Z" fill="white"/>
<path d="M140.474 117.2C139.285 117.443 138.518 118.604 138.762 119.793C138.886 120.4 139.677 121.848 141.355 121.505C143.254 121.117 145.414 121.028 147.777 121.242C150.686 121.397 151.062 117.235 148.173 116.865C145.383 116.613 142.793 116.725 140.474 117.2Z" fill="white"/>
</g>
<defs>
<linearGradient id="paint0_linear_22_14824" x1="129.5" y1="19.1099" x2="129.5" y2="265.914" gradientUnits="userSpaceOnUse">
<stop stop-color="#13A785"/>
<stop offset="1" stop-color="#01B68C"/>
</linearGradient>
<clipPath id="clip0_22_14824">
<rect width="259" height="256" fill="white"/>
</clipPath>
<clipPath id="clip1_22_14824">
<rect width="75" height="75" fill="white" transform="translate(94 72)"/>
</clipPath>
</defs>
</svg>
