<svg width="259" height="256" viewBox="0 0 259 256" fill="none" xmlns="http://www.w3.org/2000/svg">
<g clip-path="url(#clip0_22_14822)">
<path d="M205.329 117.775C205.027 118.417 204.216 119.115 202.708 119.909C197.654 122.552 188.47 118.039 192.204 128.651C193.599 132.617 200.52 135.94 199.577 140.51C198.333 146.609 189.017 143.38 190.224 151.179C188.149 150.971 184.095 150.556 182.454 152.161C179.833 154.71 182.68 155.447 182.209 157.316C180.191 165.096 178.23 159.96 172.289 162.736C175.872 170.78 170.196 169.005 164.727 169.647C164.35 178.39 166.707 184.074 173.006 189.814C177.362 193.78 185.452 199.35 180.417 205.808C169.291 220.122 154.959 177.181 148.32 173.726C139.212 168.948 143.719 177.975 139.382 179.806C136.421 181.052 136.345 173.48 132.819 174.198C129.292 174.915 132.234 183.205 128.161 183.3C123.786 183.413 126.897 174.198 120.957 179.938C117.261 183.507 118.939 190.305 118.864 194.762C118.769 199.728 117.393 203.939 116.601 208.735C116.261 210.794 114.941 237.664 110.17 230.508C106.738 225.371 110 218.592 110.302 213.116C110.585 208.018 108.793 203.656 109.491 198.689C110.453 191.778 117.789 178.956 106.474 176.539C102.042 175.595 97.5727 179.598 97.2521 172.819C90.3123 172.744 89.5579 176.672 85.7486 181.109C83.3724 183.866 76.6589 188.927 77.2057 182.129C77.7338 175.425 93.8388 172.215 92.1415 165.077C91.5192 162.452 86.7481 162.774 85.8806 160.338C84.6548 156.844 91.4438 151.5 89.4825 148.215C88.8413 147.157 83.0707 146.477 82.9952 146.817C84.3908 139.037 81.0528 141.209 76.772 137.904C71.0957 133.523 77.9601 135.355 75.9611 129.369C73.1701 121.042 61.6665 133.24 57.5365 134.335C46.0141 137.376 52.0488 127.065 58.6303 124.327C61.7231 123.043 64.8536 122.439 67.7766 120.721C72.4723 117.982 71.3597 118.228 71.8688 114.357C72.0197 113.167 69.6058 112.318 70.0773 110.448C70.4733 108.862 73.7547 108.919 74.3393 107.559C76.904 101.743 67.7766 94.4729 70.4168 89.7332C73.8301 83.5583 67.9086 81.5378 63.1752 79.9139C55.3867 77.2325 47.8999 75.2497 44.3734 66.8467C41.8276 60.7852 42.6573 55.9699 49.2766 59.7655C54.8209 62.9378 57.9703 70.2079 62.3454 74.7021C67.0411 79.5362 72.4723 81.9344 79.035 83.2373C80.0534 79.4418 77.0549 75.4952 78.0544 72.1529C78.9784 69.0183 82.4295 68.2063 84.2399 65.6004C86.0691 62.9567 87.0309 60.7285 89.0676 58.217C92.0661 54.5348 93.141 55.0635 90.9157 49.4741C89.6711 46.3395 84.5793 41.7697 85.9937 37.9931C87.6155 33.6311 90.878 35.1606 93.2542 37.8798C97.7047 42.9405 95.5926 49.9462 104.399 50.1917C117.374 50.5693 109.661 37.0301 110.038 28.6459C117.77 28.0228 115.186 38.7484 118.034 42.5251C122.749 48.7943 124.993 40.75 128.783 37.9176C132.31 42.2796 134.761 41.7509 137.024 37.5399C137.911 35.8971 138.854 25.8889 143.229 32.6114C145.322 35.8215 139.532 42.0152 144.473 44.2434C148.924 46.2451 149.886 39.8625 152.696 37.9364C157.75 44.5645 159.937 31.9316 161.559 28.8347C164.388 23.3775 168.951 17.8825 175.231 16.6739C176.966 28.6648 162.219 34.3109 162.219 44.8288C164.444 45.2631 167.028 44.8855 168.933 44.3756C169.781 50.9848 165.481 62.7679 176.947 57.2162C183.133 54.2138 186.546 46.5094 194.09 46.2828C195.938 46.2262 183.133 63.2022 182.831 64.3541C181.492 69.3582 185.49 74.3056 184.585 79.2718C183.717 83.9927 180.191 85.0312 182.228 89.9786C185.867 98.816 199.917 99.1181 207.441 97.7019C219.19 95.4737 229.109 87.335 240.915 85.6733C251.664 84.1626 262.432 91.4704 257.963 103.386C253.154 116.151 239.425 113.054 228.959 110.675C223.207 109.372 217.285 107.502 211.326 107.559C208.592 107.578 205.951 107.993 203.292 108.598C202.651 108.749 194.203 111.619 195.428 112.185C198.182 113.469 206.668 114.98 205.348 117.794L205.329 117.775ZM47.5605 185.584C59.2526 190.796 82.8821 171.705 67.7766 157.694C57.3668 148.045 40.7149 164.605 41.7333 175.803C42.2047 181.128 44.4677 184.225 47.5605 185.603V185.584ZM212.137 76.1939C223.735 70.8499 209.195 49.814 200.596 53.4773C196.353 55.2901 196.221 60.7096 195.806 64.5996C195.353 68.7539 189.13 73.0593 190.337 76.6471C191.072 78.7998 194.467 80.1216 196.541 79.574C199.125 78.8753 198.71 76.4582 200.445 75.3441C204.348 72.8138 207.743 78.2333 212.137 76.2128V76.1939ZM227.431 166.588C230.373 157.788 230.184 147.724 224.489 142.738C221.321 139.963 217.417 138.584 215.211 142.965C213.118 147.119 214.645 151.481 215.588 155.655C216.493 159.639 217.059 163.623 214.909 167.117C212.872 170.421 209.949 173.329 210.251 177.559C210.515 181.26 212.929 183.47 216.38 181.713C221.151 179.259 225.187 173.31 227.431 166.607V166.588ZM8.59922 173.367C5.65732 171.346 -2.50832 173.707 0.754164 177.993C4.5824 183.035 7.7506 172.782 8.59922 173.367ZM36.3021 150.783C29.928 154.729 23.8367 157.26 16.6894 159.828C14.4642 160.621 -1.79171 165.7 2.07425 168.911C7.5243 173.443 30.7766 157.732 36.0758 155.352C42.0727 152.652 49.3897 149.329 54.0477 144.664C49.2012 142.512 40.4698 148.177 36.3021 150.764V150.783ZM40.9789 38.5218C42.9025 34.6696 35.6986 35.8215 35.7929 35.1228C35.4535 37.521 39.3383 41.8075 40.9789 38.5218ZM28.2307 30.0433C26.5712 33.5933 33.6053 34.1976 34.4162 31.4028C35.4157 27.9094 29.4188 27.5318 28.2307 30.0433ZM30.6257 72.5494C29.6262 67.0166 23.2521 64.7695 20.1405 60.8229C18.0661 58.1982 17.3118 54.3649 13.4269 58.2548C4.84642 66.8467 30.192 70.1701 30.6257 72.5305V72.5494ZM64.6084 55.2713C60.0258 52.0045 57.2725 47.7557 53.3688 43.8091C51.9922 42.4118 44.0906 35.4627 44.2603 39.5415C44.4677 44.0546 52.822 48.0201 56.009 50.0784C63.3826 54.8369 68.3801 61.7482 74.7542 67.4509C74.2639 61.1439 69.2475 58.5758 64.5895 55.2713H64.6084ZM84.8245 22.6221C85.56 25.9078 89.2374 28.627 91.7078 30.6098C91.6324 28.0039 89.2939 27.0786 88.5396 24.7371C87.955 22.8865 89.9917 18.7322 88.0304 17.6559C84.9942 16.013 84.3719 20.6583 84.8245 22.6221ZM125.03 15.201C124.842 11.3677 128.953 5.53282 127.237 2.34155C125.672 -0.547581 122.239 -0.528698 119.976 1.22744C114.979 5.07962 117.317 21.1681 120.787 25.4546C128.293 34.6696 125.219 18.8455 125.03 15.201ZM188.489 34.7452C191.167 33.0646 198.276 30.0621 196.881 25.8323C196.239 23.9251 195.391 22.962 194.429 22.6788C189.205 21.1115 180.926 39.5415 188.489 34.7641V34.7452ZM148.207 194.554C146.114 200.559 154.016 203.656 155.845 197.859C157.486 192.628 150.376 188.379 148.207 194.554ZM167.066 249.617C164.972 255.622 172.874 258.719 174.703 252.922C176.344 247.691 169.234 243.443 167.066 249.617ZM164.557 241.592C163.784 243.254 162.917 244.821 164.727 246.445C167.311 248.768 171.233 247.012 171.441 243.632C171.61 240.723 169.197 237.287 167.066 235.587C165.802 234.568 165.387 233.926 164.935 232.339C164.595 231.131 164.52 227.977 163.049 227.449C161.201 226.788 160.899 229.45 161.031 230.715C161.276 233.283 163.068 235.077 164.557 237.003C165.84 238.646 165.236 240.157 164.557 241.592ZM153.544 225.428C153.714 225.598 153.902 225.749 154.11 225.881C156.448 227.392 158.353 224.012 159.39 222.275C161.201 219.215 164.105 211.473 161.842 208.339C160.465 206.45 156.958 207.036 155.053 207.697C151.677 208.867 146.793 211.851 146.057 215.684C145.492 218.63 147.717 218.989 149.791 220.084C151.79 221.16 152.092 223.936 153.544 225.428Z" fill="url(#paint0_linear_22_14822)"/>
</g>
<path d="M156.047 102.678C156.544 102.678 157.021 102.48 157.373 102.128C157.724 101.777 157.922 101.3 157.922 100.803V90.9801C158.712 90.1953 159.161 89.131 159.172 88.0176C159.182 87.2432 158.981 86.4805 158.593 85.8106C158.204 85.1407 157.641 84.5885 156.964 84.2126L135.664 73.2126C135.022 72.8323 134.292 72.6277 133.546 72.6194C132.8 72.6111 132.065 72.7993 131.414 73.1651L109.954 84.2501C109.294 84.637 108.749 85.1936 108.376 85.862C108.003 86.5304 107.816 87.2864 107.834 88.0516C107.852 88.8168 108.074 89.5632 108.478 90.2135C108.881 90.8639 109.452 91.3944 110.129 91.7501L118.204 95.7001V102.555C118.204 104.679 118.622 106.783 119.434 108.746C120.247 110.709 121.438 112.492 122.94 113.994C124.442 115.496 126.226 116.688 128.189 117.5C130.151 118.313 132.255 118.731 134.379 118.73C138.204 118.725 141.87 117.204 144.574 114.5C147.278 111.796 148.8 108.129 148.804 104.305V95.6926L154.172 93.0751V100.803C154.172 101.3 154.369 101.777 154.721 102.128C155.073 102.48 155.549 102.678 156.047 102.678ZM111.582 87.9701C111.576 87.8898 111.589 87.8092 111.621 87.7352C111.653 87.6612 111.702 87.596 111.764 87.5451L133.224 76.4501C133.3 76.4052 133.386 76.381 133.474 76.3801C133.609 76.3853 133.74 76.4258 133.854 76.4976L155.149 87.5001C155.235 87.5447 155.305 87.613 155.353 87.6969C155.4 87.7807 155.422 87.8764 155.417 87.9726C155.421 88.0535 155.405 88.1343 155.371 88.2079C155.337 88.2815 155.286 88.3457 155.222 88.3951L133.749 98.8601C133.67 98.9043 133.58 98.9275 133.489 98.9275C133.398 98.9275 133.309 98.9043 133.229 98.8601L133.144 98.8176L111.862 88.4376C111.776 88.3934 111.705 88.3263 111.655 88.2437C111.606 88.1611 111.58 88.0663 111.582 87.9701ZM145.054 104.305C145.051 107.135 143.925 109.849 141.924 111.85C139.923 113.851 137.209 114.977 134.379 114.98C132.747 114.981 131.131 114.66 129.624 114.036C128.116 113.411 126.746 112.496 125.592 111.342C124.438 110.188 123.523 108.818 122.899 107.311C122.275 105.803 121.954 104.187 121.954 102.555V97.5276L131.472 102.17C132.102 102.509 132.806 102.687 133.522 102.688C134.209 102.691 134.887 102.519 135.489 102.188L145.054 97.5226V104.305Z" fill="white"/>
<path d="M100.266 144.5C100.266 144.998 100.463 145.474 100.815 145.826C101.166 146.178 101.643 146.375 102.141 146.375H164.861C165.358 146.375 165.835 146.178 166.186 145.826C166.538 145.474 166.736 144.998 166.736 144.5C166.736 130.033 160.391 121.413 147.333 118.145C147.053 118.076 146.761 118.072 146.479 118.134C146.198 118.195 145.934 118.321 145.708 118.5C142.501 121.096 138.499 122.508 134.373 122.5C129.937 122.508 125.629 121.017 122.146 118.27C121.927 118.099 121.673 117.978 121.401 117.918C121.13 117.857 120.849 117.858 120.578 117.92C106.911 121 100.266 129.688 100.266 144.5ZM147.291 122C157.581 124.848 162.476 131.273 162.946 142.615H135.376V126.163C139.669 125.972 143.812 124.525 147.291 122ZM120.568 121.75C123.823 124.111 127.631 125.592 131.626 126.05V142.625H104.056C104.541 130.968 109.698 124.473 120.568 121.768V121.75Z" fill="white"/>
<defs>
<linearGradient id="paint0_linear_22_14822" x1="129.5" y1="19.1099" x2="129.5" y2="265.914" gradientUnits="userSpaceOnUse">
<stop stop-color="#13A785"/>
<stop offset="1" stop-color="#01B68C"/>
</linearGradient>
<clipPath id="clip0_22_14822">
<rect width="259" height="256" fill="white"/>
</clipPath>
</defs>
</svg>
