<svg width="259" height="256" viewBox="0 0 259 256" fill="none" xmlns="http://www.w3.org/2000/svg">
<g clip-path="url(#clip0_22_14823)">
<path d="M205.329 117.775C205.027 118.417 204.216 119.115 202.708 119.909C197.654 122.552 188.47 118.039 192.204 128.651C193.599 132.617 200.52 135.94 199.577 140.51C198.333 146.609 189.017 143.38 190.224 151.179C188.149 150.971 184.095 150.556 182.454 152.161C179.833 154.71 182.68 155.447 182.209 157.316C180.191 165.096 178.23 159.96 172.289 162.736C175.872 170.78 170.196 169.005 164.727 169.647C164.35 178.39 166.707 184.074 173.006 189.814C177.362 193.78 185.452 199.35 180.417 205.808C169.291 220.122 154.959 177.181 148.32 173.726C139.212 168.948 143.719 177.975 139.382 179.806C136.421 181.052 136.345 173.48 132.819 174.198C129.292 174.915 132.234 183.205 128.161 183.3C123.786 183.413 126.897 174.198 120.957 179.938C117.261 183.507 118.939 190.305 118.864 194.762C118.769 199.728 117.393 203.939 116.601 208.735C116.261 210.794 114.941 237.664 110.17 230.508C106.738 225.371 110 218.592 110.302 213.116C110.585 208.018 108.793 203.656 109.491 198.689C110.453 191.778 117.789 178.956 106.474 176.539C102.042 175.595 97.5727 179.598 97.2521 172.819C90.3123 172.744 89.5579 176.672 85.7486 181.109C83.3724 183.866 76.6589 188.927 77.2057 182.129C77.7338 175.425 93.8388 172.215 92.1415 165.077C91.5192 162.452 86.7481 162.774 85.8806 160.338C84.6548 156.844 91.4438 151.5 89.4825 148.215C88.8413 147.157 83.0707 146.477 82.9952 146.817C84.3908 139.037 81.0528 141.209 76.772 137.904C71.0957 133.523 77.9601 135.355 75.9611 129.369C73.1701 121.042 61.6665 133.24 57.5365 134.335C46.0141 137.376 52.0488 127.065 58.6303 124.327C61.7231 123.043 64.8536 122.439 67.7766 120.721C72.4723 117.982 71.3597 118.228 71.8688 114.357C72.0197 113.167 69.6058 112.318 70.0773 110.448C70.4733 108.862 73.7547 108.919 74.3393 107.559C76.904 101.743 67.7766 94.4729 70.4168 89.7332C73.8301 83.5583 67.9086 81.5378 63.1752 79.9139C55.3867 77.2325 47.8999 75.2497 44.3734 66.8467C41.8276 60.7852 42.6573 55.9699 49.2766 59.7655C54.8209 62.9378 57.9703 70.2079 62.3454 74.7021C67.0411 79.5362 72.4723 81.9344 79.035 83.2373C80.0534 79.4418 77.0549 75.4952 78.0544 72.1529C78.9784 69.0183 82.4295 68.2063 84.2399 65.6004C86.0691 62.9567 87.0309 60.7285 89.0676 58.217C92.0661 54.5348 93.141 55.0635 90.9157 49.4741C89.6711 46.3395 84.5793 41.7697 85.9937 37.9931C87.6155 33.6311 90.878 35.1606 93.2542 37.8798C97.7047 42.9405 95.5926 49.9462 104.399 50.1917C117.374 50.5693 109.661 37.0301 110.038 28.6459C117.77 28.0228 115.186 38.7484 118.034 42.5251C122.749 48.7943 124.993 40.75 128.783 37.9176C132.31 42.2796 134.761 41.7509 137.024 37.5399C137.911 35.8971 138.854 25.8889 143.229 32.6114C145.322 35.8215 139.532 42.0152 144.473 44.2434C148.924 46.2451 149.886 39.8625 152.696 37.9364C157.75 44.5645 159.937 31.9316 161.559 28.8347C164.388 23.3775 168.951 17.8825 175.231 16.6739C176.966 28.6648 162.219 34.3109 162.219 44.8288C164.444 45.2631 167.028 44.8855 168.933 44.3756C169.781 50.9848 165.481 62.7679 176.947 57.2162C183.133 54.2138 186.546 46.5094 194.09 46.2828C195.938 46.2262 183.133 63.2022 182.831 64.3541C181.492 69.3582 185.49 74.3056 184.585 79.2718C183.717 83.9927 180.191 85.0312 182.228 89.9786C185.867 98.816 199.917 99.1181 207.441 97.7019C219.19 95.4737 229.109 87.335 240.915 85.6733C251.664 84.1626 262.432 91.4704 257.963 103.386C253.154 116.151 239.425 113.054 228.959 110.675C223.207 109.372 217.285 107.502 211.326 107.559C208.592 107.578 205.951 107.993 203.292 108.598C202.651 108.749 194.203 111.619 195.428 112.185C198.182 113.469 206.668 114.98 205.348 117.794L205.329 117.775ZM47.5605 185.584C59.2526 190.796 82.8821 171.705 67.7766 157.694C57.3668 148.045 40.7149 164.605 41.7333 175.803C42.2047 181.128 44.4677 184.225 47.5605 185.603V185.584ZM212.137 76.1939C223.735 70.8499 209.195 49.814 200.596 53.4773C196.353 55.2901 196.221 60.7096 195.806 64.5996C195.353 68.7539 189.13 73.0593 190.337 76.6471C191.072 78.7998 194.467 80.1216 196.541 79.574C199.125 78.8753 198.71 76.4582 200.445 75.3441C204.348 72.8138 207.743 78.2333 212.137 76.2128V76.1939ZM227.431 166.588C230.373 157.788 230.184 147.724 224.489 142.738C221.321 139.963 217.417 138.584 215.211 142.965C213.118 147.119 214.645 151.481 215.588 155.655C216.493 159.639 217.059 163.623 214.909 167.117C212.872 170.421 209.949 173.329 210.251 177.559C210.515 181.26 212.929 183.47 216.38 181.713C221.151 179.259 225.187 173.31 227.431 166.607V166.588ZM8.59922 173.367C5.65732 171.346 -2.50832 173.707 0.754164 177.993C4.5824 183.035 7.7506 172.782 8.59922 173.367ZM36.3021 150.783C29.928 154.729 23.8367 157.26 16.6894 159.828C14.4642 160.621 -1.79171 165.7 2.07425 168.911C7.5243 173.443 30.7766 157.732 36.0758 155.352C42.0727 152.652 49.3897 149.329 54.0477 144.664C49.2012 142.512 40.4698 148.177 36.3021 150.764V150.783ZM40.9789 38.5218C42.9025 34.6696 35.6986 35.8215 35.7929 35.1228C35.4535 37.521 39.3383 41.8075 40.9789 38.5218ZM28.2307 30.0433C26.5712 33.5933 33.6053 34.1976 34.4162 31.4028C35.4157 27.9094 29.4188 27.5318 28.2307 30.0433ZM30.6257 72.5494C29.6262 67.0166 23.2521 64.7695 20.1405 60.8229C18.0661 58.1982 17.3118 54.3649 13.4269 58.2548C4.84642 66.8467 30.192 70.1701 30.6257 72.5305V72.5494ZM64.6084 55.2713C60.0258 52.0045 57.2725 47.7557 53.3688 43.8091C51.9922 42.4118 44.0906 35.4627 44.2603 39.5415C44.4677 44.0546 52.822 48.0201 56.009 50.0784C63.3826 54.8369 68.3801 61.7482 74.7542 67.4509C74.2639 61.1439 69.2475 58.5758 64.5895 55.2713H64.6084ZM84.8245 22.6221C85.56 25.9078 89.2374 28.627 91.7078 30.6098C91.6324 28.0039 89.2939 27.0786 88.5396 24.7371C87.955 22.8865 89.9917 18.7322 88.0304 17.6559C84.9942 16.013 84.3719 20.6583 84.8245 22.6221ZM125.03 15.201C124.842 11.3677 128.953 5.53282 127.237 2.34155C125.672 -0.547581 122.239 -0.528698 119.976 1.22744C114.979 5.07962 117.317 21.1681 120.787 25.4546C128.293 34.6696 125.219 18.8455 125.03 15.201ZM188.489 34.7452C191.167 33.0646 198.276 30.0621 196.881 25.8323C196.239 23.9251 195.391 22.962 194.429 22.6788C189.205 21.1115 180.926 39.5415 188.489 34.7641V34.7452ZM148.207 194.554C146.114 200.559 154.016 203.656 155.845 197.859C157.486 192.628 150.376 188.379 148.207 194.554ZM167.066 249.617C164.972 255.622 172.874 258.719 174.703 252.922C176.344 247.691 169.234 243.443 167.066 249.617ZM164.557 241.592C163.784 243.254 162.917 244.821 164.727 246.445C167.311 248.768 171.233 247.012 171.441 243.632C171.61 240.723 169.197 237.287 167.066 235.587C165.802 234.568 165.387 233.926 164.935 232.339C164.595 231.131 164.52 227.977 163.049 227.449C161.201 226.788 160.899 229.45 161.031 230.715C161.276 233.283 163.068 235.077 164.557 237.003C165.84 238.646 165.236 240.157 164.557 241.592ZM153.544 225.428C153.714 225.598 153.902 225.749 154.11 225.881C156.448 227.392 158.353 224.012 159.39 222.275C161.201 219.215 164.105 211.473 161.842 208.339C160.465 206.45 156.958 207.036 155.053 207.697C151.677 208.867 146.793 211.851 146.057 215.684C145.492 218.63 147.717 218.989 149.791 220.084C151.79 221.16 152.092 223.936 153.544 225.428Z" fill="url(#paint0_linear_22_14823)"/>
</g>
<g clip-path="url(#clip1_22_14823)">
<path d="M104.466 119.658C103.962 119.658 103.479 119.457 103.122 119.101C102.766 118.744 102.565 118.261 102.565 117.757V104.199C102.565 103.695 102.766 103.212 103.122 102.855C103.479 102.499 103.962 102.299 104.466 102.299C104.97 102.299 105.454 102.499 105.81 102.855C106.166 103.212 106.367 103.695 106.367 104.199V117.757C106.367 118.261 106.166 118.744 105.81 119.101C105.454 119.457 104.97 119.658 104.466 119.658Z" fill="white"/>
<path d="M113.03 89.3851C111.212 89.3851 109.435 88.846 107.923 87.8359C106.412 86.8258 105.233 85.3901 104.538 83.7104C103.842 82.0307 103.66 80.1824 104.015 78.3992C104.369 76.616 105.245 74.978 106.53 73.6924C107.816 72.4068 109.454 71.5313 111.237 71.1766C113.02 70.8219 114.869 71.004 116.548 71.6997C118.228 72.3955 119.664 73.5737 120.674 75.0854C121.684 76.5972 122.223 78.3744 122.223 80.1925C122.22 82.6297 121.251 84.9663 119.528 86.6897C117.804 88.413 115.468 89.3824 113.03 89.3851ZM113.03 74.8012C111.964 74.8012 110.922 75.1174 110.035 75.7098C109.149 76.3022 108.458 77.1442 108.049 78.1294C107.641 79.1145 107.535 80.1985 107.743 81.2443C107.951 82.2902 108.464 83.2508 109.218 84.0048C109.972 84.7588 110.933 85.2723 111.979 85.4803C113.024 85.6883 114.108 85.5816 115.094 85.1735C116.079 84.7655 116.921 84.0744 117.513 83.1878C118.106 82.3012 118.422 81.2589 118.422 80.1925C118.42 78.7632 117.852 77.3928 116.841 76.3821C115.83 75.3714 114.46 74.8029 113.03 74.8012Z" fill="white"/>
<path d="M142.999 103.604C142.632 103.604 142.273 103.498 141.965 103.299C141.657 103.099 141.413 102.815 141.264 102.48C141.114 102.145 141.064 101.774 141.12 101.411C141.177 101.048 141.337 100.71 141.582 100.436L151.908 88.8605C152.075 88.6742 152.276 88.5225 152.501 88.4141C152.726 88.3057 152.97 88.2427 153.22 88.2286C153.469 88.2145 153.719 88.2497 153.954 88.3322C154.19 88.4146 154.407 88.5427 154.594 88.7091C154.78 88.8755 154.932 89.0769 155.04 89.3019C155.149 89.527 155.212 89.7711 155.226 90.0205C155.24 90.2699 155.205 90.5196 155.122 90.7554C155.04 90.9911 154.912 91.2084 154.745 91.3946L144.419 102.964C144.241 103.165 144.022 103.326 143.778 103.436C143.533 103.546 143.268 103.604 142.999 103.604Z" fill="white"/>
<path d="M163.298 120.766H129.198C128.694 120.766 128.211 120.566 127.854 120.21C127.498 119.853 127.297 119.37 127.297 118.866C127.297 118.362 127.498 117.878 127.854 117.522C128.211 117.165 128.694 116.965 129.198 116.965H163.298C163.803 116.965 164.286 116.765 164.642 116.408C164.999 116.052 165.199 115.569 165.199 115.065V76.7448C165.199 76.2407 164.999 75.7573 164.642 75.4008C164.286 75.0444 163.803 74.8442 163.298 74.8442H126.014C125.51 74.8442 125.026 74.6439 124.67 74.2875C124.314 73.9311 124.113 73.4476 124.113 72.9436C124.113 72.4395 124.314 71.9561 124.67 71.5996C125.026 71.2432 125.51 71.043 126.014 71.043H163.298C164.811 71.043 166.261 71.6437 167.33 72.713C168.4 73.7823 169 75.2325 169 76.7448V115.065C169 116.577 168.4 118.027 167.33 119.096C166.261 120.166 164.811 120.766 163.298 120.766Z" fill="white"/>
<path d="M113.03 146.001H104.466C103.962 146.001 103.479 145.801 103.122 145.444C102.766 145.088 102.565 144.605 102.565 144.101V117.757C102.565 117.253 102.766 116.77 103.122 116.413C103.479 116.057 103.962 115.856 104.466 115.856C104.97 115.856 105.454 116.057 105.81 116.413C106.166 116.77 106.367 117.253 106.367 117.757V142.2H113.03C113.534 142.2 114.018 142.4 114.374 142.757C114.73 143.113 114.931 143.596 114.931 144.101C114.931 144.605 114.73 145.088 114.374 145.444C114.018 145.801 113.534 146.001 113.03 146.001Z" fill="white"/>
<path d="M121.595 146.001H113.03C112.526 146.001 112.043 145.801 111.686 145.445C111.33 145.088 111.129 144.605 111.129 144.101V118.866C111.129 118.362 111.33 117.878 111.686 117.522C112.043 117.165 112.526 116.965 113.03 116.965C113.534 116.965 114.018 117.165 114.374 117.522C114.73 117.878 114.931 118.362 114.931 118.866V142.2H119.695V106.266C119.695 105.477 119.928 104.706 120.367 104.05C120.805 103.394 121.428 102.883 122.157 102.582C122.885 102.28 123.687 102.201 124.461 102.355C125.235 102.509 125.945 102.889 126.503 103.447L129.482 106.422C129.702 106.644 129.965 106.82 130.254 106.939C130.543 107.059 130.853 107.12 131.165 107.119H140.011C140.328 107.119 140.642 107.056 140.934 106.933C141.226 106.81 141.491 106.63 141.713 106.404C141.935 106.177 142.109 105.909 142.226 105.614C142.343 105.319 142.4 105.004 142.393 104.687C142.366 103.401 141.26 102.356 139.927 102.356H132.934C132.43 102.356 131.947 102.155 131.591 101.799L127.5 97.7084C126.758 96.9618 125.875 96.37 124.902 95.9672C123.929 95.5644 122.886 95.3586 121.834 95.3618H120.359L117.486 97.7502C116.235 98.7903 114.659 99.3597 113.032 99.3597C111.405 99.3597 109.829 98.7903 108.578 97.7502L105.703 95.3618H104.466C102.699 95.3638 101.005 96.0667 99.7555 97.3161C98.506 98.5656 97.8032 100.26 97.8012 102.027C97.8012 102.531 97.6009 103.014 97.2445 103.371C96.8881 103.727 96.4047 103.927 95.9006 103.927C95.3965 103.927 94.9131 103.727 94.5567 103.371C94.2002 103.014 94 102.531 94 102.027C94.003 99.2518 95.1066 96.5915 97.0687 94.6294C99.0308 92.6673 101.691 91.5637 104.466 91.5606H106.389C106.833 91.5608 107.263 91.7163 107.604 92.0003L111.005 94.8271C111.574 95.3012 112.292 95.5608 113.033 95.5608C113.773 95.5608 114.491 95.3012 115.06 94.8271L118.458 91.999C118.799 91.7151 119.229 91.5595 119.673 91.5594H121.836C123.388 91.5551 124.926 91.8587 126.36 92.4527C127.794 93.0467 129.095 93.9192 130.19 95.0197L133.725 98.5548H139.934C143.322 98.5548 146.132 101.271 146.199 104.611C146.216 105.434 146.068 106.251 145.765 107.016C145.462 107.781 145.009 108.477 144.434 109.064C143.858 109.652 143.171 110.119 142.412 110.437C141.654 110.756 140.84 110.92 140.017 110.92H131.16C130.348 110.922 129.544 110.764 128.793 110.453C128.043 110.142 127.362 109.685 126.789 109.109L123.815 106.132C123.791 106.108 123.761 106.091 123.727 106.082C123.694 106.074 123.659 106.075 123.626 106.085C123.589 106.097 123.557 106.121 123.534 106.153C123.512 106.185 123.5 106.223 123.5 106.262V144.097C123.5 144.347 123.451 144.595 123.356 144.826C123.26 145.058 123.12 145.268 122.943 145.445C122.766 145.622 122.556 145.762 122.325 145.857C122.093 145.953 121.846 146.002 121.595 146.001Z" fill="white"/>
<path d="M100.183 123.94C98.5439 123.939 96.9721 123.287 95.8129 122.128C94.6537 120.968 94.0017 119.397 94 117.757V102.025C94 101.521 94.2002 101.038 94.5567 100.681C94.9131 100.325 95.3965 100.125 95.9006 100.125C96.4047 100.125 96.8881 100.325 97.2445 100.681C97.6009 101.038 97.8012 101.521 97.8012 102.025V117.757C97.8012 118.389 98.0522 118.995 98.4989 119.442C98.9456 119.888 99.5515 120.139 100.183 120.139C100.815 120.139 101.421 119.888 101.868 119.442C102.314 118.995 102.565 118.389 102.565 117.757C102.565 117.253 102.766 116.77 103.122 116.413C103.478 116.057 103.962 115.857 104.466 115.857C104.97 115.857 105.453 116.057 105.81 116.413C106.166 116.77 106.367 117.253 106.367 117.757C106.365 119.397 105.713 120.968 104.554 122.128C103.394 123.287 101.823 123.939 100.183 123.94Z" fill="white"/>
<path d="M153.809 146.001H95.9045C95.4004 146.001 94.917 145.801 94.5606 145.445C94.2041 145.088 94.0039 144.605 94.0039 144.101C94.0039 143.597 94.2041 143.113 94.5606 142.757C94.917 142.4 95.4004 142.2 95.9045 142.2H153.809C154.313 142.2 154.797 142.4 155.153 142.757C155.51 143.113 155.71 143.597 155.71 144.101C155.71 144.605 155.51 145.088 155.153 145.445C154.797 145.801 154.313 146.001 153.809 146.001Z" fill="white"/>
<path d="M143.47 92.0268H133.616C133.112 92.0268 132.629 91.8265 132.272 91.4701C131.916 91.1137 131.716 90.6302 131.716 90.1262C131.716 89.6221 131.916 89.1387 132.272 88.7823C132.629 88.4258 133.112 88.2256 133.616 88.2256H143.47C143.974 88.2256 144.458 88.4258 144.814 88.7823C145.171 89.1387 145.371 89.6221 145.371 90.1262C145.371 90.6302 145.171 91.1137 144.814 91.4701C144.458 91.8265 143.974 92.0268 143.47 92.0268Z" fill="white"/>
<path d="M153.324 83.435H133.616C133.112 83.435 132.629 83.2347 132.272 82.8783C131.916 82.5219 131.716 82.0385 131.716 81.5344C131.716 81.0303 131.916 80.5469 132.272 80.1905C132.629 79.834 133.112 79.6338 133.616 79.6338H153.324C153.828 79.6338 154.312 79.834 154.668 80.1905C155.025 80.5469 155.225 81.0303 155.225 81.5344C155.225 82.0385 155.025 82.5219 154.668 82.8783C154.312 83.2347 153.828 83.435 153.324 83.435Z" fill="white"/>
</g>
<defs>
<linearGradient id="paint0_linear_22_14823" x1="129.5" y1="19.1099" x2="129.5" y2="265.914" gradientUnits="userSpaceOnUse">
<stop stop-color="#13A785"/>
<stop offset="1" stop-color="#01B68C"/>
</linearGradient>
<clipPath id="clip0_22_14823">
<rect width="259" height="256" fill="white"/>
</clipPath>
<clipPath id="clip1_22_14823">
<rect width="75" height="75" fill="white" transform="translate(94 71)"/>
</clipPath>
</defs>
</svg>
