<svg width="214" height="211" viewBox="0 0 214 211" fill="none" xmlns="http://www.w3.org/2000/svg">
<g clip-path="url(#clip0_10_14814)">
<path opacity="0.7" d="M197.933 86.3111C198.089 129.233 163.325 164.157 120.281 164.313C77.2358 164.469 42.2115 129.804 42.0552 86.8824C41.899 43.9605 76.6629 9.0362 119.708 8.88041C162.753 8.72461 197.777 43.3893 197.933 86.3111Z" fill="url(#paint0_linear_10_14814)"/>
<path opacity="0.7" d="M70.4653 65.9018C104.083 33.4962 157.675 34.379 190.173 67.9012C222.671 101.423 221.786 154.861 188.168 187.267C154.55 219.673 100.959 218.79 68.4602 185.268C35.9618 151.745 36.8472 98.3074 70.4653 65.9018Z" fill="url(#paint1_linear_10_14814)"/>
<path opacity="0.7" d="M26.6654 65.2786C58.3826 34.6907 108.927 35.5475 139.603 67.1482C170.278 98.7748 169.419 149.175 137.702 179.763C105.984 210.351 55.44 209.494 24.7644 177.867C-5.91117 146.241 -5.05184 95.8407 26.6393 65.2527L26.6654 65.2786Z" fill="url(#paint2_linear_10_14814)"/>
<path opacity="0.7" d="M31.4047 47.9074C35.3368 44.1163 41.6126 44.2202 45.4145 48.1411C49.2164 52.0619 49.1122 58.3197 45.1801 62.1108C41.248 65.9018 34.9723 65.798 31.1704 61.8771C27.3685 57.9562 27.4726 51.6984 31.4047 47.9074Z" fill="url(#paint3_linear_10_14814)"/>
<path opacity="0.7" d="M43.6958 4.23247C46.2738 1.76569 50.3621 1.81762 52.836 4.38826C55.3098 6.9589 55.2577 11.0356 52.6797 13.5023C50.1017 15.9691 46.0134 15.9172 43.5395 13.3465C41.0657 10.7759 41.1178 6.69924 43.6958 4.23247Z" fill="url(#paint4_linear_10_14814)"/>
<path opacity="0.7" d="M71.4288 1.24631C73.1995 -0.467445 76.0119 -0.415513 77.7045 1.35018C79.4232 3.11587 79.3711 5.9202 77.6004 7.60799C75.8296 9.32175 73.0173 9.26982 71.2986 7.50413C69.606 5.73844 69.632 2.93411 71.4028 1.24631H71.4288Z" fill="url(#paint5_linear_10_14814)"/>
<path opacity="0.7" d="M11.7963 153.667C14.4264 156.368 14.3482 160.704 11.64 163.326C8.93185 165.949 4.5831 165.871 1.95302 163.171C-0.677061 160.47 -0.59894 156.134 2.10926 153.511C4.8435 150.889 9.16621 150.967 11.7963 153.667Z" fill="url(#paint6_linear_10_14814)"/>
<path opacity="0.5" d="M182.309 126.584C182.309 169.506 147.415 204.301 104.37 204.301C61.3252 204.301 26.431 169.506 26.431 126.584C26.431 83.6625 61.3252 48.868 104.37 48.868C147.415 48.868 182.309 83.6625 182.309 126.584Z" fill="white"/>
<path opacity="0.5" d="M173.195 101.709C173.195 142.112 140.332 174.881 99.8129 174.881C59.294 174.881 26.431 142.112 26.431 101.709C26.431 61.3058 59.294 28.5366 99.8129 28.5366C140.332 28.5366 173.195 61.3058 173.195 101.709Z" fill="white"/>
<path opacity="0.5" d="M197.49 113.42C197.49 153.823 164.627 186.592 124.109 186.592C83.5897 186.592 50.7267 153.823 50.7267 113.42C50.7267 73.0164 83.5897 40.2473 124.109 40.2473C164.627 40.2473 197.49 73.0164 197.49 113.42Z" fill="white"/>
<path d="M112.182 192.434C68.4862 192.434 32.9411 156.991 32.9411 113.42C32.9411 69.8487 68.4862 34.405 112.182 34.405C155.878 34.405 191.423 69.8487 191.423 113.42C191.423 156.991 155.878 192.434 112.182 192.434ZM112.182 37.0016C69.9185 37.0016 35.5451 71.2768 35.5451 113.42C35.5451 155.563 69.9185 189.838 112.182 189.838C154.446 189.838 188.819 155.563 188.819 113.42C188.819 71.2768 154.446 37.0016 112.182 37.0016Z" fill="white"/>
<path d="M186.085 113.42C186.085 154.108 152.987 187.111 112.208 187.111C71.4288 187.111 38.3315 154.108 38.3315 113.42C38.3315 72.7309 71.4028 39.754 112.208 39.754C153.013 39.754 186.085 72.7309 186.085 113.42Z" fill="white"/>
</g>
<path d="M130.046 102.678C130.543 102.678 131.02 102.48 131.372 102.128C131.723 101.777 131.921 101.3 131.921 100.803V90.9801C132.711 90.1953 133.16 89.131 133.171 88.0176C133.181 87.2432 132.981 86.4805 132.592 85.8106C132.203 85.1407 131.64 84.5885 130.963 84.2126L109.663 73.2126C109.021 72.8323 108.291 72.6277 107.545 72.6194C106.799 72.6111 106.064 72.7993 105.413 73.1651L83.9533 84.2501C83.2929 84.637 82.7481 85.1936 82.3753 85.862C82.0025 86.5304 81.8153 87.2864 81.8332 88.0516C81.8511 88.8168 82.0733 89.5632 82.4768 90.2135C82.8804 90.8639 83.4506 91.3944 84.1283 91.7501L92.2033 95.7001V102.555C92.2026 104.679 92.6206 106.783 93.4332 108.746C94.2458 110.709 95.4373 112.492 96.9394 113.994C98.4415 115.496 100.225 116.688 102.188 117.5C104.15 118.313 106.254 118.731 108.378 118.73C112.203 118.725 115.869 117.204 118.573 114.5C121.277 111.796 122.799 108.129 122.803 104.305V95.6926L128.171 93.0751V100.803C128.171 101.3 128.368 101.777 128.72 102.128C129.072 102.48 129.549 102.678 130.046 102.678ZM85.5808 87.9701C85.5747 87.8898 85.5882 87.8092 85.6199 87.7352C85.6517 87.6612 85.7009 87.596 85.7633 87.5451L107.223 76.4501C107.299 76.4052 107.385 76.381 107.473 76.3801C107.608 76.3853 107.739 76.4258 107.853 76.4976L129.148 87.5001C129.234 87.5447 129.304 87.613 129.352 87.6969C129.399 87.7807 129.421 87.8764 129.416 87.9726C129.42 88.0535 129.404 88.1343 129.37 88.2079C129.336 88.2815 129.285 88.3457 129.221 88.3951L107.748 98.8601C107.669 98.9043 107.579 98.9275 107.488 98.9275C107.397 98.9275 107.308 98.9043 107.228 98.8601L107.143 98.8176L85.8608 88.4376C85.7752 88.3934 85.7037 88.3263 85.6543 88.2437C85.6048 88.1611 85.5794 88.0663 85.5808 87.9701ZM119.053 104.305C119.05 107.135 117.924 109.849 115.923 111.85C113.922 113.851 111.208 114.977 108.378 114.98C106.746 114.981 105.13 114.66 103.623 114.036C102.115 113.411 100.745 112.496 99.591 111.342C98.4371 110.188 97.5219 108.818 96.8977 107.311C96.2736 105.803 95.9526 104.187 95.9533 102.555V97.5276L105.471 102.17C106.101 102.509 106.805 102.687 107.521 102.688C108.208 102.691 108.886 102.519 109.488 102.188L119.053 97.5226V104.305Z" fill="#00B98E"/>
<path d="M74.2656 144.5C74.2656 144.998 74.4632 145.474 74.8148 145.826C75.1664 146.178 75.6433 146.375 76.1406 146.375H138.861C139.358 146.375 139.835 146.178 140.186 145.826C140.538 145.474 140.736 144.998 140.736 144.5C140.736 130.033 134.391 121.413 121.333 118.145C121.053 118.076 120.761 118.072 120.479 118.134C120.198 118.195 119.934 118.321 119.708 118.5C116.501 121.096 112.499 122.508 108.373 122.5C103.937 122.508 99.6287 121.017 96.1456 118.27C95.9269 118.099 95.6727 117.978 95.4015 117.918C95.1303 117.857 94.849 117.858 94.5781 117.92C80.9106 121 74.2656 129.688 74.2656 144.5ZM121.291 122C131.581 124.848 136.476 131.273 136.946 142.615H109.376V126.163C113.669 125.972 117.812 124.525 121.291 122ZM94.5681 121.75C97.8228 124.111 101.631 125.592 105.626 126.05V142.625H78.0556C78.5406 130.968 83.6981 124.473 94.5681 121.768V121.75Z" fill="#00B98E"/>
<defs>
<linearGradient id="paint0_linear_10_14814" x1="42.071" y1="86.8562" x2="197.948" y2="86.2832" gradientUnits="userSpaceOnUse">
<stop stop-color="#00B98E"/>
<stop offset="1" stop-color="#169678"/>
</linearGradient>
<linearGradient id="paint1_linear_10_14814" x1="188.23" y1="187.354" x2="70.859" y2="65.6347" gradientUnits="userSpaceOnUse">
<stop stop-color="#00B98E"/>
<stop offset="1" stop-color="#0C9172"/>
</linearGradient>
<linearGradient id="paint2_linear_10_14814" x1="137.749" y1="179.863" x2="27.0198" y2="65.0317" gradientUnits="userSpaceOnUse">
<stop stop-color="#00B98E"/>
<stop offset="1" stop-color="#0D9273"/>
</linearGradient>
<linearGradient id="paint3_linear_10_14814" x1="45.2159" y1="62.1871" x2="31.4808" y2="47.9431" gradientUnits="userSpaceOnUse">
<stop stop-color="#00B98E"/>
<stop offset="1" stop-color="#0F9576"/>
</linearGradient>
<linearGradient id="paint4_linear_10_14814" x1="52.7362" y1="13.5764" x2="43.7659" y2="4.27386" gradientUnits="userSpaceOnUse">
<stop stop-color="#00B98E"/>
<stop offset="1" stop-color="#0B9A79"/>
</linearGradient>
<linearGradient id="paint5_linear_10_14814" x1="77.6781" y1="7.69448" x2="71.5054" y2="1.29313" gradientUnits="userSpaceOnUse">
<stop stop-color="#00B98E"/>
<stop offset="1" stop-color="#3DDAB6"/>
</linearGradient>
<linearGradient id="paint6_linear_10_14814" x1="1.91571" y1="163.201" x2="11.7348" y2="153.678" gradientUnits="userSpaceOnUse">
<stop stop-color="#00B98E"/>
<stop offset="1" stop-color="#119475"/>
</linearGradient>
<clipPath id="clip0_10_14814">
<rect width="214" height="211" fill="white"/>
</clipPath>
</defs>
</svg>
